<?xml version="1.0" encoding="utf-8"?>
<svg xmlns="http://www.w3.org/2000/svg" xmlns:xlink="http://www.w3.org/1999/xlink" width="600" height="400" viewBox="0 0 2400 1600">
<defs>
  <clipPath id="clip490">
    <rect x="0" y="0" width="2400" height="1600"/>
  </clipPath>
</defs>
<path clip-path="url(#clip490)" d="M0 1600 L2400 1600 L2400 0 L0 0  Z" fill="#ffffff" fill-rule="evenodd" fill-opacity="1"/>
<defs>
  <clipPath id="clip491">
    <rect x="480" y="0" width="1681" height="1600"/>
  </clipPath>
</defs>
<path clip-path="url(#clip490)" d="M241.394 1423.18 L2305.3 1423.18 L2305.3 47.2441 L241.394 47.2441  Z" fill="#ffffff" fill-rule="evenodd" fill-opacity="1"/>
<defs>
  <clipPath id="clip492">
    <rect x="241" y="47" width="2065" height="1377"/>
  </clipPath>
</defs>
<polyline clip-path="url(#clip492)" style="stroke:#000000; stroke-linecap:round; stroke-linejoin:round; stroke-width:2; stroke-opacity:0.1; fill:none" points="241.394,1423.18 241.394,47.2441 "/>
<polyline clip-path="url(#clip492)" style="stroke:#000000; stroke-linecap:round; stroke-linejoin:round; stroke-width:2; stroke-opacity:0.1; fill:none" points="585.378,1423.18 585.378,47.2441 "/>
<polyline clip-path="url(#clip492)" style="stroke:#000000; stroke-linecap:round; stroke-linejoin:round; stroke-width:2; stroke-opacity:0.1; fill:none" points="929.362,1423.18 929.362,47.2441 "/>
<polyline clip-path="url(#clip492)" style="stroke:#000000; stroke-linecap:round; stroke-linejoin:round; stroke-width:2; stroke-opacity:0.1; fill:none" points="1273.35,1423.18 1273.35,47.2441 "/>
<polyline clip-path="url(#clip492)" style="stroke:#000000; stroke-linecap:round; stroke-linejoin:round; stroke-width:2; stroke-opacity:0.1; fill:none" points="1617.33,1423.18 1617.33,47.2441 "/>
<polyline clip-path="url(#clip492)" style="stroke:#000000; stroke-linecap:round; stroke-linejoin:round; stroke-width:2; stroke-opacity:0.1; fill:none" points="1961.31,1423.18 1961.31,47.2441 "/>
<polyline clip-path="url(#clip492)" style="stroke:#000000; stroke-linecap:round; stroke-linejoin:round; stroke-width:2; stroke-opacity:0.1; fill:none" points="2305.3,1423.18 2305.3,47.2441 "/>
<polyline clip-path="url(#clip492)" style="stroke:#000000; stroke-linecap:round; stroke-linejoin:round; stroke-width:2; stroke-opacity:0.1; fill:none" points="241.394,1423.18 2305.3,1423.18 "/>
<polyline clip-path="url(#clip492)" style="stroke:#000000; stroke-linecap:round; stroke-linejoin:round; stroke-width:2; stroke-opacity:0.1; fill:none" points="241.394,1079.2 2305.3,1079.2 "/>
<polyline clip-path="url(#clip492)" style="stroke:#000000; stroke-linecap:round; stroke-linejoin:round; stroke-width:2; stroke-opacity:0.1; fill:none" points="241.394,735.212 2305.3,735.212 "/>
<polyline clip-path="url(#clip492)" style="stroke:#000000; stroke-linecap:round; stroke-linejoin:round; stroke-width:2; stroke-opacity:0.1; fill:none" points="241.394,391.228 2305.3,391.228 "/>
<polyline clip-path="url(#clip492)" style="stroke:#000000; stroke-linecap:round; stroke-linejoin:round; stroke-width:2; stroke-opacity:0.1; fill:none" points="241.394,47.2441 2305.3,47.2441 "/>
<polyline clip-path="url(#clip490)" style="stroke:#000000; stroke-linecap:round; stroke-linejoin:round; stroke-width:4; stroke-opacity:1; fill:none" points="241.394,1423.18 2305.3,1423.18 "/>
<polyline clip-path="url(#clip490)" style="stroke:#000000; stroke-linecap:round; stroke-linejoin:round; stroke-width:4; stroke-opacity:1; fill:none" points="241.394,1423.18 241.394,1404.28 "/>
<polyline clip-path="url(#clip490)" style="stroke:#000000; stroke-linecap:round; stroke-linejoin:round; stroke-width:4; stroke-opacity:1; fill:none" points="585.378,1423.18 585.378,1404.28 "/>
<polyline clip-path="url(#clip490)" style="stroke:#000000; stroke-linecap:round; stroke-linejoin:round; stroke-width:4; stroke-opacity:1; fill:none" points="929.362,1423.18 929.362,1404.28 "/>
<polyline clip-path="url(#clip490)" style="stroke:#000000; stroke-linecap:round; stroke-linejoin:round; stroke-width:4; stroke-opacity:1; fill:none" points="1273.35,1423.18 1273.35,1404.28 "/>
<polyline clip-path="url(#clip490)" style="stroke:#000000; stroke-linecap:round; stroke-linejoin:round; stroke-width:4; stroke-opacity:1; fill:none" points="1617.33,1423.18 1617.33,1404.28 "/>
<polyline clip-path="url(#clip490)" style="stroke:#000000; stroke-linecap:round; stroke-linejoin:round; stroke-width:4; stroke-opacity:1; fill:none" points="1961.31,1423.18 1961.31,1404.28 "/>
<polyline clip-path="url(#clip490)" style="stroke:#000000; stroke-linecap:round; stroke-linejoin:round; stroke-width:4; stroke-opacity:1; fill:none" points="2305.3,1423.18 2305.3,1404.28 "/>
<path clip-path="url(#clip490)" d="M188.42 1468.75 L218.096 1468.75 L218.096 1472.69 L188.42 1472.69 L188.42 1468.75 Z" fill="#000000" fill-rule="nonzero" fill-opacity="1" /><path clip-path="url(#clip490)" d="M228.998 1481.64 L236.637 1481.64 L236.637 1455.28 L228.327 1456.95 L228.327 1452.69 L236.591 1451.02 L241.267 1451.02 L241.267 1481.64 L248.906 1481.64 L248.906 1485.58 L228.998 1485.58 L228.998 1481.64 Z" fill="#000000" fill-rule="nonzero" fill-opacity="1" /><path clip-path="url(#clip490)" d="M258.35 1479.7 L263.234 1479.7 L263.234 1485.58 L258.35 1485.58 L258.35 1479.7 Z" fill="#000000" fill-rule="nonzero" fill-opacity="1" /><path clip-path="url(#clip490)" d="M273.466 1451.02 L291.822 1451.02 L291.822 1454.96 L277.748 1454.96 L277.748 1463.43 Q278.767 1463.08 279.785 1462.92 Q280.804 1462.73 281.822 1462.73 Q287.609 1462.73 290.989 1465.9 Q294.368 1469.08 294.368 1474.49 Q294.368 1480.07 290.896 1483.17 Q287.424 1486.25 281.105 1486.25 Q278.929 1486.25 276.66 1485.88 Q274.415 1485.51 272.007 1484.77 L272.007 1480.07 Q274.091 1481.2 276.313 1481.76 Q278.535 1482.32 281.012 1482.32 Q285.017 1482.32 287.355 1480.21 Q289.692 1478.1 289.692 1474.49 Q289.692 1470.88 287.355 1468.77 Q285.017 1466.67 281.012 1466.67 Q279.137 1466.67 277.262 1467.08 Q275.41 1467.5 273.466 1468.38 L273.466 1451.02 Z" fill="#000000" fill-rule="nonzero" fill-opacity="1" /><path clip-path="url(#clip490)" d="M531.906 1468.75 L561.582 1468.75 L561.582 1472.69 L531.906 1472.69 L531.906 1468.75 Z" fill="#000000" fill-rule="nonzero" fill-opacity="1" /><path clip-path="url(#clip490)" d="M572.485 1481.64 L580.123 1481.64 L580.123 1455.28 L571.813 1456.95 L571.813 1452.69 L580.077 1451.02 L584.753 1451.02 L584.753 1481.64 L592.392 1481.64 L592.392 1485.58 L572.485 1485.58 L572.485 1481.64 Z" fill="#000000" fill-rule="nonzero" fill-opacity="1" /><path clip-path="url(#clip490)" d="M601.836 1479.7 L606.721 1479.7 L606.721 1485.58 L601.836 1485.58 L601.836 1479.7 Z" fill="#000000" fill-rule="nonzero" fill-opacity="1" /><path clip-path="url(#clip490)" d="M626.906 1454.1 Q623.295 1454.1 621.466 1457.66 Q619.66 1461.2 619.66 1468.33 Q619.66 1475.44 621.466 1479.01 Q623.295 1482.55 626.906 1482.55 Q630.54 1482.55 632.345 1479.01 Q634.174 1475.44 634.174 1468.33 Q634.174 1461.2 632.345 1457.66 Q630.54 1454.1 626.906 1454.1 M626.906 1450.39 Q632.716 1450.39 635.771 1455 Q638.85 1459.58 638.85 1468.33 Q638.85 1477.06 635.771 1481.67 Q632.716 1486.25 626.906 1486.25 Q621.095 1486.25 618.017 1481.67 Q614.961 1477.06 614.961 1468.33 Q614.961 1459.58 618.017 1455 Q621.095 1450.39 626.906 1450.39 Z" fill="#000000" fill-rule="nonzero" fill-opacity="1" /><path clip-path="url(#clip490)" d="M876.388 1468.75 L906.064 1468.75 L906.064 1472.69 L876.388 1472.69 L876.388 1468.75 Z" fill="#000000" fill-rule="nonzero" fill-opacity="1" /><path clip-path="url(#clip490)" d="M926.156 1454.1 Q922.545 1454.1 920.716 1457.66 Q918.911 1461.2 918.911 1468.33 Q918.911 1475.44 920.716 1479.01 Q922.545 1482.55 926.156 1482.55 Q929.79 1482.55 931.596 1479.01 Q933.424 1475.44 933.424 1468.33 Q933.424 1461.2 931.596 1457.66 Q929.79 1454.1 926.156 1454.1 M926.156 1450.39 Q931.966 1450.39 935.022 1455 Q938.1 1459.58 938.1 1468.33 Q938.1 1477.06 935.022 1481.67 Q931.966 1486.25 926.156 1486.25 Q920.346 1486.25 917.267 1481.67 Q914.212 1477.06 914.212 1468.33 Q914.212 1459.58 917.267 1455 Q920.346 1450.39 926.156 1450.39 Z" fill="#000000" fill-rule="nonzero" fill-opacity="1" /><path clip-path="url(#clip490)" d="M946.318 1479.7 L951.202 1479.7 L951.202 1485.58 L946.318 1485.58 L946.318 1479.7 Z" fill="#000000" fill-rule="nonzero" fill-opacity="1" /><path clip-path="url(#clip490)" d="M961.434 1451.02 L979.79 1451.02 L979.79 1454.96 L965.716 1454.96 L965.716 1463.43 Q966.734 1463.08 967.753 1462.92 Q968.772 1462.73 969.79 1462.73 Q975.577 1462.73 978.957 1465.9 Q982.336 1469.08 982.336 1474.49 Q982.336 1480.07 978.864 1483.17 Q975.392 1486.25 969.072 1486.25 Q966.897 1486.25 964.628 1485.88 Q962.383 1485.51 959.975 1484.77 L959.975 1480.07 Q962.059 1481.2 964.281 1481.76 Q966.503 1482.32 968.98 1482.32 Q972.984 1482.32 975.322 1480.21 Q977.66 1478.1 977.66 1474.49 Q977.66 1470.88 975.322 1468.77 Q972.984 1466.67 968.98 1466.67 Q967.105 1466.67 965.23 1467.08 Q963.378 1467.5 961.434 1468.38 L961.434 1451.02 Z" fill="#000000" fill-rule="nonzero" fill-opacity="1" /><path clip-path="url(#clip490)" d="M1250.73 1454.1 Q1247.12 1454.1 1245.29 1457.66 Q1243.49 1461.2 1243.49 1468.33 Q1243.49 1475.44 1245.29 1479.01 Q1247.12 1482.55 1250.73 1482.55 Q1254.36 1482.55 1256.17 1479.01 Q1258 1475.44 1258 1468.33 Q1258 1461.2 1256.17 1457.66 Q1254.36 1454.1 1250.73 1454.1 M1250.73 1450.39 Q1256.54 1450.39 1259.6 1455 Q1262.67 1459.58 1262.67 1468.33 Q1262.67 1477.06 1259.6 1481.67 Q1256.54 1486.25 1250.73 1486.25 Q1244.92 1486.25 1241.84 1481.67 Q1238.79 1477.06 1238.79 1468.33 Q1238.79 1459.58 1241.84 1455 Q1244.92 1450.39 1250.73 1450.39 Z" fill="#000000" fill-rule="nonzero" fill-opacity="1" /><path clip-path="url(#clip490)" d="M1270.89 1479.7 L1275.78 1479.7 L1275.78 1485.58 L1270.89 1485.58 L1270.89 1479.7 Z" fill="#000000" fill-rule="nonzero" fill-opacity="1" /><path clip-path="url(#clip490)" d="M1295.96 1454.1 Q1292.35 1454.1 1290.52 1457.66 Q1288.72 1461.2 1288.72 1468.33 Q1288.72 1475.44 1290.52 1479.01 Q1292.35 1482.55 1295.96 1482.55 Q1299.6 1482.55 1301.4 1479.01 Q1303.23 1475.44 1303.23 1468.33 Q1303.23 1461.2 1301.4 1457.66 Q1299.6 1454.1 1295.96 1454.1 M1295.96 1450.39 Q1301.77 1450.39 1304.83 1455 Q1307.91 1459.58 1307.91 1468.33 Q1307.91 1477.06 1304.83 1481.67 Q1301.77 1486.25 1295.96 1486.25 Q1290.15 1486.25 1287.07 1481.67 Q1284.02 1477.06 1284.02 1468.33 Q1284.02 1459.58 1287.07 1455 Q1290.15 1450.39 1295.96 1450.39 Z" fill="#000000" fill-rule="nonzero" fill-opacity="1" /><path clip-path="url(#clip490)" d="M1595.21 1454.1 Q1591.6 1454.1 1589.77 1457.66 Q1587.97 1461.2 1587.97 1468.33 Q1587.97 1475.44 1589.77 1479.01 Q1591.6 1482.55 1595.21 1482.55 Q1598.85 1482.55 1600.65 1479.01 Q1602.48 1475.44 1602.48 1468.33 Q1602.48 1461.2 1600.65 1457.66 Q1598.85 1454.1 1595.21 1454.1 M1595.21 1450.39 Q1601.02 1450.39 1604.08 1455 Q1607.16 1459.58 1607.16 1468.33 Q1607.16 1477.06 1604.08 1481.67 Q1601.02 1486.25 1595.21 1486.25 Q1589.4 1486.25 1586.32 1481.67 Q1583.27 1477.06 1583.27 1468.33 Q1583.27 1459.58 1586.32 1455 Q1589.4 1450.39 1595.21 1450.39 Z" fill="#000000" fill-rule="nonzero" fill-opacity="1" /><path clip-path="url(#clip490)" d="M1615.37 1479.7 L1620.26 1479.7 L1620.26 1485.58 L1615.37 1485.58 L1615.37 1479.7 Z" fill="#000000" fill-rule="nonzero" fill-opacity="1" /><path clip-path="url(#clip490)" d="M1630.49 1451.02 L1648.85 1451.02 L1648.85 1454.96 L1634.77 1454.96 L1634.77 1463.43 Q1635.79 1463.08 1636.81 1462.92 Q1637.83 1462.73 1638.85 1462.73 Q1644.63 1462.73 1648.01 1465.9 Q1651.39 1469.08 1651.39 1474.49 Q1651.39 1480.07 1647.92 1483.17 Q1644.45 1486.25 1638.13 1486.25 Q1635.95 1486.25 1633.68 1485.88 Q1631.44 1485.51 1629.03 1484.77 L1629.03 1480.07 Q1631.11 1481.2 1633.34 1481.76 Q1635.56 1482.32 1638.04 1482.32 Q1642.04 1482.32 1644.38 1480.21 Q1646.72 1478.1 1646.72 1474.49 Q1646.72 1470.88 1644.38 1468.77 Q1642.04 1466.67 1638.04 1466.67 Q1636.16 1466.67 1634.29 1467.08 Q1632.43 1467.5 1630.49 1468.38 L1630.49 1451.02 Z" fill="#000000" fill-rule="nonzero" fill-opacity="1" /><path clip-path="url(#clip490)" d="M1928.47 1481.64 L1936.11 1481.64 L1936.11 1455.28 L1927.8 1456.95 L1927.8 1452.69 L1936.06 1451.02 L1940.74 1451.02 L1940.74 1481.64 L1948.37 1481.64 L1948.37 1485.58 L1928.47 1485.58 L1928.47 1481.64 Z" fill="#000000" fill-rule="nonzero" fill-opacity="1" /><path clip-path="url(#clip490)" d="M1957.82 1479.7 L1962.7 1479.7 L1962.7 1485.58 L1957.82 1485.58 L1957.82 1479.7 Z" fill="#000000" fill-rule="nonzero" fill-opacity="1" /><path clip-path="url(#clip490)" d="M1982.89 1454.1 Q1979.28 1454.1 1977.45 1457.66 Q1975.64 1461.2 1975.64 1468.33 Q1975.64 1475.44 1977.45 1479.01 Q1979.28 1482.55 1982.89 1482.55 Q1986.52 1482.55 1988.33 1479.01 Q1990.16 1475.44 1990.16 1468.33 Q1990.16 1461.2 1988.33 1457.66 Q1986.52 1454.1 1982.89 1454.1 M1982.89 1450.39 Q1988.7 1450.39 1991.75 1455 Q1994.83 1459.58 1994.83 1468.33 Q1994.83 1477.06 1991.75 1481.67 Q1988.7 1486.25 1982.89 1486.25 Q1977.08 1486.25 1974 1481.67 Q1970.94 1477.06 1970.94 1468.33 Q1970.94 1459.58 1974 1455 Q1977.08 1450.39 1982.89 1450.39 Z" fill="#000000" fill-rule="nonzero" fill-opacity="1" /><path clip-path="url(#clip490)" d="M2272.95 1481.64 L2280.59 1481.64 L2280.59 1455.28 L2272.28 1456.95 L2272.28 1452.69 L2280.54 1451.02 L2285.22 1451.02 L2285.22 1481.64 L2292.86 1481.64 L2292.86 1485.58 L2272.95 1485.58 L2272.95 1481.64 Z" fill="#000000" fill-rule="nonzero" fill-opacity="1" /><path clip-path="url(#clip490)" d="M2302.3 1479.7 L2307.18 1479.7 L2307.18 1485.58 L2302.3 1485.58 L2302.3 1479.7 Z" fill="#000000" fill-rule="nonzero" fill-opacity="1" /><path clip-path="url(#clip490)" d="M2317.42 1451.02 L2335.77 1451.02 L2335.77 1454.96 L2321.7 1454.96 L2321.7 1463.43 Q2322.72 1463.08 2323.74 1462.92 Q2324.75 1462.73 2325.77 1462.73 Q2331.56 1462.73 2334.94 1465.9 Q2338.32 1469.08 2338.32 1474.49 Q2338.32 1480.07 2334.85 1483.17 Q2331.37 1486.25 2325.05 1486.25 Q2322.88 1486.25 2320.61 1485.88 Q2318.36 1485.51 2315.96 1484.77 L2315.96 1480.07 Q2318.04 1481.2 2320.26 1481.76 Q2322.49 1482.32 2324.96 1482.32 Q2328.97 1482.32 2331.3 1480.21 Q2333.64 1478.1 2333.64 1474.49 Q2333.64 1470.88 2331.3 1468.77 Q2328.97 1466.67 2324.96 1466.67 Q2323.09 1466.67 2321.21 1467.08 Q2319.36 1467.5 2317.42 1468.38 L2317.42 1451.02 Z" fill="#000000" fill-rule="nonzero" fill-opacity="1" /><path clip-path="url(#clip490)" d="M1258.42 1553.98 L1258.42 1532.4 L1264.27 1532.4 L1264.27 1553.75 Q1264.27 1558.81 1266.25 1561.36 Q1268.22 1563.87 1272.17 1563.87 Q1276.91 1563.87 1279.65 1560.85 Q1282.42 1557.83 1282.42 1552.61 L1282.42 1532.4 L1288.27 1532.4 L1288.27 1568.04 L1282.42 1568.04 L1282.42 1562.57 Q1280.28 1565.82 1277.45 1567.41 Q1274.65 1568.97 1270.93 1568.97 Q1264.78 1568.97 1261.6 1565.15 Q1258.42 1561.33 1258.42 1553.98 M1273.15 1531.54 L1273.15 1531.54 Z" fill="#000000" fill-rule="nonzero" fill-opacity="1" /><polyline clip-path="url(#clip490)" style="stroke:#000000; stroke-linecap:round; stroke-linejoin:round; stroke-width:4; stroke-opacity:1; fill:none" points="241.394,1423.18 241.394,47.2441 "/>
<polyline clip-path="url(#clip490)" style="stroke:#000000; stroke-linecap:round; stroke-linejoin:round; stroke-width:4; stroke-opacity:1; fill:none" points="241.394,1423.18 259.461,1423.18 "/>
<polyline clip-path="url(#clip490)" style="stroke:#000000; stroke-linecap:round; stroke-linejoin:round; stroke-width:4; stroke-opacity:1; fill:none" points="241.394,1079.2 259.461,1079.2 "/>
<polyline clip-path="url(#clip490)" style="stroke:#000000; stroke-linecap:round; stroke-linejoin:round; stroke-width:4; stroke-opacity:1; fill:none" points="241.394,735.212 259.461,735.212 "/>
<polyline clip-path="url(#clip490)" style="stroke:#000000; stroke-linecap:round; stroke-linejoin:round; stroke-width:4; stroke-opacity:1; fill:none" points="241.394,391.228 259.461,391.228 "/>
<polyline clip-path="url(#clip490)" style="stroke:#000000; stroke-linecap:round; stroke-linejoin:round; stroke-width:4; stroke-opacity:1; fill:none" points="241.394,47.2441 259.461,47.2441 "/>
<path clip-path="url(#clip490)" d="M98.4503 1423.63 L128.126 1423.63 L128.126 1427.57 L98.4503 1427.57 L98.4503 1423.63 Z" fill="#000000" fill-rule="nonzero" fill-opacity="1" /><path clip-path="url(#clip490)" d="M139.029 1436.52 L146.668 1436.52 L146.668 1410.16 L138.357 1411.83 L138.357 1407.57 L146.621 1405.9 L151.297 1405.9 L151.297 1436.52 L158.936 1436.52 L158.936 1440.46 L139.029 1440.46 L139.029 1436.52 Z" fill="#000000" fill-rule="nonzero" fill-opacity="1" /><path clip-path="url(#clip490)" d="M168.38 1434.58 L173.265 1434.58 L173.265 1440.46 L168.38 1440.46 L168.38 1434.58 Z" fill="#000000" fill-rule="nonzero" fill-opacity="1" /><path clip-path="url(#clip490)" d="M193.45 1408.98 Q189.839 1408.98 188.01 1412.54 Q186.204 1416.08 186.204 1423.21 Q186.204 1430.32 188.01 1433.89 Q189.839 1437.43 193.45 1437.43 Q197.084 1437.43 198.89 1433.89 Q200.718 1430.32 200.718 1423.21 Q200.718 1416.08 198.89 1412.54 Q197.084 1408.98 193.45 1408.98 M193.45 1405.27 Q199.26 1405.27 202.315 1409.88 Q205.394 1414.46 205.394 1423.21 Q205.394 1431.94 202.315 1436.55 Q199.26 1441.13 193.45 1441.13 Q187.64 1441.13 184.561 1436.55 Q181.505 1431.94 181.505 1423.21 Q181.505 1414.46 184.561 1409.88 Q187.64 1405.27 193.45 1405.27 Z" fill="#000000" fill-rule="nonzero" fill-opacity="1" /><path clip-path="url(#clip490)" d="M99.4456 1079.65 L129.121 1079.65 L129.121 1083.58 L99.4456 1083.58 L99.4456 1079.65 Z" fill="#000000" fill-rule="nonzero" fill-opacity="1" /><path clip-path="url(#clip490)" d="M149.214 1064.99 Q145.603 1064.99 143.774 1068.56 Q141.969 1072.1 141.969 1079.23 Q141.969 1086.34 143.774 1089.9 Q145.603 1093.44 149.214 1093.44 Q152.848 1093.44 154.654 1089.9 Q156.482 1086.34 156.482 1079.23 Q156.482 1072.1 154.654 1068.56 Q152.848 1064.99 149.214 1064.99 M149.214 1061.29 Q155.024 1061.29 158.08 1065.9 Q161.158 1070.48 161.158 1079.23 Q161.158 1087.96 158.08 1092.56 Q155.024 1097.15 149.214 1097.15 Q143.404 1097.15 140.325 1092.56 Q137.27 1087.96 137.27 1079.23 Q137.27 1070.48 140.325 1065.9 Q143.404 1061.29 149.214 1061.29 Z" fill="#000000" fill-rule="nonzero" fill-opacity="1" /><path clip-path="url(#clip490)" d="M169.376 1090.6 L174.26 1090.6 L174.26 1096.48 L169.376 1096.48 L169.376 1090.6 Z" fill="#000000" fill-rule="nonzero" fill-opacity="1" /><path clip-path="url(#clip490)" d="M184.491 1061.92 L202.848 1061.92 L202.848 1065.85 L188.774 1065.85 L188.774 1074.32 Q189.792 1073.98 190.811 1073.81 Q191.829 1073.63 192.848 1073.63 Q198.635 1073.63 202.015 1076.8 Q205.394 1079.97 205.394 1085.39 Q205.394 1090.97 201.922 1094.07 Q198.45 1097.15 192.13 1097.15 Q189.954 1097.15 187.686 1096.78 Q185.441 1096.41 183.033 1095.67 L183.033 1090.97 Q185.116 1092.1 187.339 1092.66 Q189.561 1093.21 192.038 1093.21 Q196.042 1093.21 198.38 1091.11 Q200.718 1089 200.718 1085.39 Q200.718 1081.78 198.38 1079.67 Q196.042 1077.56 192.038 1077.56 Q190.163 1077.56 188.288 1077.98 Q186.436 1078.4 184.491 1079.28 L184.491 1061.92 Z" fill="#000000" fill-rule="nonzero" fill-opacity="1" /><path clip-path="url(#clip490)" d="M148.219 721.011 Q144.607 721.011 142.779 724.575 Q140.973 728.117 140.973 735.247 Q140.973 742.353 142.779 745.918 Q144.607 749.46 148.219 749.46 Q151.853 749.46 153.658 745.918 Q155.487 742.353 155.487 735.247 Q155.487 728.117 153.658 724.575 Q151.853 721.011 148.219 721.011 M148.219 717.307 Q154.029 717.307 157.084 721.913 Q160.163 726.497 160.163 735.247 Q160.163 743.973 157.084 748.58 Q154.029 753.163 148.219 753.163 Q142.408 753.163 139.33 748.58 Q136.274 743.973 136.274 735.247 Q136.274 726.497 139.33 721.913 Q142.408 717.307 148.219 717.307 Z" fill="#000000" fill-rule="nonzero" fill-opacity="1" /><path clip-path="url(#clip490)" d="M168.38 746.612 L173.265 746.612 L173.265 752.492 L168.38 752.492 L168.38 746.612 Z" fill="#000000" fill-rule="nonzero" fill-opacity="1" /><path clip-path="url(#clip490)" d="M193.45 721.011 Q189.839 721.011 188.01 724.575 Q186.204 728.117 186.204 735.247 Q186.204 742.353 188.01 745.918 Q189.839 749.46 193.45 749.46 Q197.084 749.46 198.89 745.918 Q200.718 742.353 200.718 735.247 Q200.718 728.117 198.89 724.575 Q197.084 721.011 193.45 721.011 M193.45 717.307 Q199.26 717.307 202.315 721.913 Q205.394 726.497 205.394 735.247 Q205.394 743.973 202.315 748.58 Q199.26 753.163 193.45 753.163 Q187.64 753.163 184.561 748.58 Q181.505 743.973 181.505 735.247 Q181.505 726.497 184.561 721.913 Q187.64 717.307 193.45 717.307 Z" fill="#000000" fill-rule="nonzero" fill-opacity="1" /><path clip-path="url(#clip490)" d="M149.214 377.027 Q145.603 377.027 143.774 380.592 Q141.969 384.133 141.969 391.263 Q141.969 398.369 143.774 401.934 Q145.603 405.476 149.214 405.476 Q152.848 405.476 154.654 401.934 Q156.482 398.369 156.482 391.263 Q156.482 384.133 154.654 380.592 Q152.848 377.027 149.214 377.027 M149.214 373.323 Q155.024 373.323 158.08 377.929 Q161.158 382.513 161.158 391.263 Q161.158 399.99 158.08 404.596 Q155.024 409.179 149.214 409.179 Q143.404 409.179 140.325 404.596 Q137.27 399.99 137.27 391.263 Q137.27 382.513 140.325 377.929 Q143.404 373.323 149.214 373.323 Z" fill="#000000" fill-rule="nonzero" fill-opacity="1" /><path clip-path="url(#clip490)" d="M169.376 402.628 L174.26 402.628 L174.26 408.508 L169.376 408.508 L169.376 402.628 Z" fill="#000000" fill-rule="nonzero" fill-opacity="1" /><path clip-path="url(#clip490)" d="M184.491 373.948 L202.848 373.948 L202.848 377.883 L188.774 377.883 L188.774 386.355 Q189.792 386.008 190.811 385.846 Q191.829 385.661 192.848 385.661 Q198.635 385.661 202.015 388.832 Q205.394 392.003 205.394 397.42 Q205.394 402.999 201.922 406.101 Q198.45 409.179 192.13 409.179 Q189.954 409.179 187.686 408.809 Q185.441 408.439 183.033 407.698 L183.033 402.999 Q185.116 404.133 187.339 404.689 Q189.561 405.244 192.038 405.244 Q196.042 405.244 198.38 403.138 Q200.718 401.031 200.718 397.42 Q200.718 393.809 198.38 391.703 Q196.042 389.596 192.038 389.596 Q190.163 389.596 188.288 390.013 Q186.436 390.429 184.491 391.309 L184.491 373.948 Z" fill="#000000" fill-rule="nonzero" fill-opacity="1" /><path clip-path="url(#clip490)" d="M139.029 60.5889 L146.668 60.5889 L146.668 34.2233 L138.357 35.89 L138.357 31.6308 L146.621 29.9641 L151.297 29.9641 L151.297 60.5889 L158.936 60.5889 L158.936 64.5241 L139.029 64.5241 L139.029 60.5889 Z" fill="#000000" fill-rule="nonzero" fill-opacity="1" /><path clip-path="url(#clip490)" d="M168.38 58.6445 L173.265 58.6445 L173.265 64.5241 L168.38 64.5241 L168.38 58.6445 Z" fill="#000000" fill-rule="nonzero" fill-opacity="1" /><path clip-path="url(#clip490)" d="M193.45 33.0428 Q189.839 33.0428 188.01 36.6076 Q186.204 40.1492 186.204 47.2788 Q186.204 54.3853 188.01 57.9501 Q189.839 61.4917 193.45 61.4917 Q197.084 61.4917 198.89 57.9501 Q200.718 54.3853 200.718 47.2788 Q200.718 40.1492 198.89 36.6076 Q197.084 33.0428 193.45 33.0428 M193.45 29.3391 Q199.26 29.3391 202.315 33.9456 Q205.394 38.5289 205.394 47.2788 Q205.394 56.0056 202.315 60.6121 Q199.26 65.1954 193.45 65.1954 Q187.64 65.1954 184.561 60.6121 Q181.505 56.0056 181.505 47.2788 Q181.505 38.5289 184.561 33.9456 Q187.64 29.3391 193.45 29.3391 Z" fill="#000000" fill-rule="nonzero" fill-opacity="1" /><polyline clip-path="url(#clip492)" style="stroke:#009af9; stroke-linecap:round; stroke-linejoin:round; stroke-width:8; stroke-opacity:1; fill:none" points="-102.59,735.212 1273.35,735.212 1273.35,-6144.47 "/>
<polyline clip-path="url(#clip492)" style="stroke:#e26f46; stroke-linecap:round; stroke-linejoin:round; stroke-width:8; stroke-opacity:1; fill:none" points="-102.59,1285.59 2649.28,184.838 "/>
<path clip-path="url(#clip490)" d="M1919.45 248.629 L2233.34 248.629 L2233.34 93.1086 L1919.45 93.1086  Z" fill="#ffffff" fill-rule="evenodd" fill-opacity="1"/>
<polyline clip-path="url(#clip490)" style="stroke:#000000; stroke-linecap:round; stroke-linejoin:round; stroke-width:4; stroke-opacity:1; fill:none" points="1919.45,248.629 2233.34,248.629 2233.34,93.1086 1919.45,93.1086 1919.45,248.629 "/>
<polyline clip-path="url(#clip490)" style="stroke:#009af9; stroke-linecap:round; stroke-linejoin:round; stroke-width:8; stroke-opacity:1; fill:none" points="1943.43,144.949 2087.35,144.949 "/>
<path clip-path="url(#clip490)" d="M2111.34 127.669 L2116.02 127.669 L2116.02 162.229 L2111.34 162.229 L2111.34 127.669 Z" fill="#000000" fill-rule="nonzero" fill-opacity="1" /><path clip-path="url(#clip490)" d="M2135.37 126.257 Q2132.27 131.581 2130.76 136.789 Q2129.26 141.997 2129.26 147.344 Q2129.26 152.692 2130.76 157.946 Q2132.29 163.178 2135.37 168.479 L2131.67 168.479 Q2128.19 163.039 2126.46 157.784 Q2124.74 152.53 2124.74 147.344 Q2124.74 142.182 2126.46 136.951 Q2128.17 131.72 2131.67 126.257 L2135.37 126.257 Z" fill="#000000" fill-rule="nonzero" fill-opacity="1" /><path clip-path="url(#clip490)" d="M2143.19 151.997 L2143.19 136.303 L2147.45 136.303 L2147.45 151.835 Q2147.45 155.516 2148.89 157.368 Q2150.32 159.196 2153.19 159.196 Q2156.64 159.196 2158.63 156.997 Q2160.65 154.798 2160.65 151.002 L2160.65 136.303 L2164.91 136.303 L2164.91 162.229 L2160.65 162.229 L2160.65 158.247 Q2159.1 160.608 2157.04 161.766 Q2155 162.9 2152.29 162.9 Q2147.82 162.9 2145.51 160.122 Q2143.19 157.344 2143.19 151.997 M2153.91 135.678 L2153.91 135.678 Z" fill="#000000" fill-rule="nonzero" fill-opacity="1" /><path clip-path="url(#clip490)" d="M2173.01 126.257 L2176.71 126.257 Q2180.18 131.72 2181.9 136.951 Q2183.63 142.182 2183.63 147.344 Q2183.63 152.53 2181.9 157.784 Q2180.18 163.039 2176.71 168.479 L2173.01 168.479 Q2176.09 163.178 2177.59 157.946 Q2179.12 152.692 2179.12 147.344 Q2179.12 141.997 2177.59 136.789 Q2176.09 131.581 2173.01 126.257 Z" fill="#000000" fill-rule="nonzero" fill-opacity="1" /><polyline clip-path="url(#clip490)" style="stroke:#e26f46; stroke-linecap:round; stroke-linejoin:round; stroke-width:8; stroke-opacity:1; fill:none" points="1943.43,196.789 2087.35,196.789 "/>
<path clip-path="url(#clip490)" d="M2123.29 182.587 Q2119.67 182.587 2117.85 186.152 Q2116.04 189.694 2116.04 196.823 Q2116.04 203.93 2117.85 207.495 Q2119.67 211.036 2123.29 211.036 Q2126.92 211.036 2128.73 207.495 Q2130.55 203.93 2130.55 196.823 Q2130.55 189.694 2128.73 186.152 Q2126.92 182.587 2123.29 182.587 M2123.29 178.884 Q2129.1 178.884 2132.15 183.49 Q2135.23 188.073 2135.23 196.823 Q2135.23 205.55 2132.15 210.157 Q2129.1 214.74 2123.29 214.74 Q2117.48 214.74 2114.4 210.157 Q2111.34 205.55 2111.34 196.823 Q2111.34 188.073 2114.4 183.49 Q2117.48 178.884 2123.29 178.884 Z" fill="#000000" fill-rule="nonzero" fill-opacity="1" /><path clip-path="url(#clip490)" d="M2143.45 208.189 L2148.33 208.189 L2148.33 214.069 L2143.45 214.069 L2143.45 208.189 Z" fill="#000000" fill-rule="nonzero" fill-opacity="1" /><path clip-path="url(#clip490)" d="M2171.36 183.583 L2159.56 202.032 L2171.36 202.032 L2171.36 183.583 M2170.14 179.509 L2176.02 179.509 L2176.02 202.032 L2180.95 202.032 L2180.95 205.921 L2176.02 205.921 L2176.02 214.069 L2171.36 214.069 L2171.36 205.921 L2155.76 205.921 L2155.76 201.407 L2170.14 179.509 Z" fill="#000000" fill-rule="nonzero" fill-opacity="1" /><path clip-path="url(#clip490)" d="M2187.64 203.837 L2187.64 188.143 L2191.9 188.143 L2191.9 203.675 Q2191.9 207.356 2193.33 209.208 Q2194.77 211.036 2197.64 211.036 Q2201.09 211.036 2203.08 208.837 Q2205.09 206.638 2205.09 202.842 L2205.09 188.143 L2209.35 188.143 L2209.35 214.069 L2205.09 214.069 L2205.09 210.087 Q2203.54 212.448 2201.48 213.606 Q2199.44 214.74 2196.73 214.74 Q2192.27 214.74 2189.95 211.962 Q2187.64 209.184 2187.64 203.837 M2198.35 187.518 L2198.35 187.518 Z" fill="#000000" fill-rule="nonzero" fill-opacity="1" /></svg>
