<?xml version="1.0" encoding="utf-8"?>
<svg xmlns="http://www.w3.org/2000/svg" xmlns:xlink="http://www.w3.org/1999/xlink" width="600" height="400" viewBox="0 0 2400 1600">
<defs>
  <clipPath id="clip790">
    <rect x="0" y="0" width="2400" height="1600"/>
  </clipPath>
</defs>
<path clip-path="url(#clip790)" d="M0 1600 L2400 1600 L2400 0 L0 0  Z" fill="#ffffff" fill-rule="evenodd" fill-opacity="1"/>
<defs>
  <clipPath id="clip791">
    <rect x="480" y="0" width="1681" height="1600"/>
  </clipPath>
</defs>
<defs>
  <clipPath id="clip792">
    <rect x="186" y="47" width="2167" height="1440"/>
  </clipPath>
</defs>
<path clip-path="url(#clip792)" d="M-823.226 3625.79 L-823.226 2268.05 L-39.3346 1589.18 L1318.4 1981.12 L1318.4 3338.86 L534.514 4017.73 L-823.226 3625.79  Z" fill="#ffffff" fill-rule="evenodd" fill-opacity="1"/>
<polyline clip-path="url(#clip792)" style="stroke:#000000; stroke-linecap:round; stroke-linejoin:round; stroke-width:2; stroke-opacity:0.1; fill:none" points="722.349,1208.56 1137.81,848.76 1137.81,129.158 "/>
<polyline clip-path="url(#clip792)" style="stroke:#000000; stroke-linecap:round; stroke-linejoin:round; stroke-width:2; stroke-opacity:0.1; fill:none" points="892.066,1257.55 1307.53,897.753 1307.53,178.151 "/>
<polyline clip-path="url(#clip792)" style="stroke:#000000; stroke-linecap:round; stroke-linejoin:round; stroke-width:2; stroke-opacity:0.1; fill:none" points="1061.78,1306.55 1477.25,946.746 1477.25,227.145 "/>
<polyline clip-path="url(#clip792)" style="stroke:#000000; stroke-linecap:round; stroke-linejoin:round; stroke-width:2; stroke-opacity:0.1; fill:none" points="1231.5,1355.54 1646.96,995.74 1646.96,276.138 "/>
<polyline clip-path="url(#clip792)" style="stroke:#000000; stroke-linecap:round; stroke-linejoin:round; stroke-width:2; stroke-opacity:0.1; fill:none" points="1401.22,1404.53 1816.68,1044.73 1816.68,325.131 "/>
<polyline clip-path="url(#clip792)" style="stroke:#000000; stroke-linecap:round; stroke-linejoin:round; stroke-width:2; stroke-opacity:0.1; fill:none" points="1433.34,1400.23 713.741,1192.5 713.741,472.897 "/>
<polyline clip-path="url(#clip792)" style="stroke:#000000; stroke-linecap:round; stroke-linejoin:round; stroke-width:2; stroke-opacity:0.1; fill:none" points="1531.33,1315.37 811.728,1107.64 811.728,388.038 "/>
<polyline clip-path="url(#clip792)" style="stroke:#000000; stroke-linecap:round; stroke-linejoin:round; stroke-width:2; stroke-opacity:0.1; fill:none" points="1629.32,1230.51 909.714,1022.78 909.714,303.179 "/>
<polyline clip-path="url(#clip792)" style="stroke:#000000; stroke-linecap:round; stroke-linejoin:round; stroke-width:2; stroke-opacity:0.1; fill:none" points="1727.3,1145.65 1007.7,937.923 1007.7,218.321 "/>
<polyline clip-path="url(#clip792)" style="stroke:#000000; stroke-linecap:round; stroke-linejoin:round; stroke-width:2; stroke-opacity:0.1; fill:none" points="1825.29,1060.8 1105.69,853.064 1105.69,133.462 "/>
<polyline clip-path="url(#clip792)" style="stroke:#000000; stroke-linecap:round; stroke-linejoin:round; stroke-width:2; stroke-opacity:0.1; fill:none" points="701.983,1182.32 1117.45,822.515 1837.05,1030.25 "/>
<polyline clip-path="url(#clip792)" style="stroke:#000000; stroke-linecap:round; stroke-linejoin:round; stroke-width:2; stroke-opacity:0.1; fill:none" points="701.983,1012.6 1117.45,652.797 1837.05,860.529 "/>
<polyline clip-path="url(#clip792)" style="stroke:#000000; stroke-linecap:round; stroke-linejoin:round; stroke-width:2; stroke-opacity:0.1; fill:none" points="701.983,842.881 1117.45,483.08 1837.05,690.811 "/>
<polyline clip-path="url(#clip792)" style="stroke:#000000; stroke-linecap:round; stroke-linejoin:round; stroke-width:2; stroke-opacity:0.1; fill:none" points="701.983,673.163 1117.45,313.362 1837.05,521.094 "/>
<polyline clip-path="url(#clip792)" style="stroke:#000000; stroke-linecap:round; stroke-linejoin:round; stroke-width:2; stroke-opacity:0.1; fill:none" points="701.983,503.446 1117.45,143.645 1837.05,351.376 "/>
<polyline clip-path="url(#clip790)" style="stroke:#000000; stroke-linecap:round; stroke-linejoin:round; stroke-width:4; stroke-opacity:1; fill:none" points="701.983,1202.68 1421.58,1410.41 "/>
<polyline clip-path="url(#clip790)" style="stroke:#000000; stroke-linecap:round; stroke-linejoin:round; stroke-width:4; stroke-opacity:1; fill:none" points="722.349,1208.56 727.334,1204.24 "/>
<polyline clip-path="url(#clip790)" style="stroke:#000000; stroke-linecap:round; stroke-linejoin:round; stroke-width:4; stroke-opacity:1; fill:none" points="892.066,1257.55 897.052,1253.24 "/>
<polyline clip-path="url(#clip790)" style="stroke:#000000; stroke-linecap:round; stroke-linejoin:round; stroke-width:4; stroke-opacity:1; fill:none" points="1061.78,1306.55 1066.77,1302.23 "/>
<polyline clip-path="url(#clip790)" style="stroke:#000000; stroke-linecap:round; stroke-linejoin:round; stroke-width:4; stroke-opacity:1; fill:none" points="1231.5,1355.54 1236.49,1351.22 "/>
<polyline clip-path="url(#clip790)" style="stroke:#000000; stroke-linecap:round; stroke-linejoin:round; stroke-width:4; stroke-opacity:1; fill:none" points="1401.22,1404.53 1406.2,1400.22 "/>
<path clip-path="url(#clip790)" d="M627.024 1222.03 Q623.413 1222.03 621.584 1225.59 Q619.778 1229.14 619.778 1236.27 Q619.778 1243.37 621.584 1246.94 Q623.413 1250.48 627.024 1250.48 Q630.658 1250.48 632.464 1246.94 Q634.292 1243.37 634.292 1236.27 Q634.292 1229.14 632.464 1225.59 Q630.658 1222.03 627.024 1222.03 M627.024 1218.33 Q632.834 1218.33 635.889 1222.93 Q638.968 1227.52 638.968 1236.27 Q638.968 1244.99 635.889 1249.6 Q632.834 1254.18 627.024 1254.18 Q621.214 1254.18 618.135 1249.6 Q615.079 1244.99 615.079 1236.27 Q615.079 1227.52 618.135 1222.93 Q621.214 1218.33 627.024 1218.33 Z" fill="#000000" fill-rule="nonzero" fill-opacity="1" /><path clip-path="url(#clip790)" d="M647.186 1247.63 L652.07 1247.63 L652.07 1253.51 L647.186 1253.51 L647.186 1247.63 Z" fill="#000000" fill-rule="nonzero" fill-opacity="1" /><path clip-path="url(#clip790)" d="M672.255 1222.03 Q668.644 1222.03 666.815 1225.59 Q665.01 1229.14 665.01 1236.27 Q665.01 1243.37 666.815 1246.94 Q668.644 1250.48 672.255 1250.48 Q675.889 1250.48 677.695 1246.94 Q679.523 1243.37 679.523 1236.27 Q679.523 1229.14 677.695 1225.59 Q675.889 1222.03 672.255 1222.03 M672.255 1218.33 Q678.065 1218.33 681.121 1222.93 Q684.199 1227.52 684.199 1236.27 Q684.199 1244.99 681.121 1249.6 Q678.065 1254.18 672.255 1254.18 Q666.445 1254.18 663.366 1249.6 Q660.311 1244.99 660.311 1236.27 Q660.311 1227.52 663.366 1222.93 Q666.445 1218.33 672.255 1218.33 Z" fill="#000000" fill-rule="nonzero" fill-opacity="1" /><path clip-path="url(#clip790)" d="M702.417 1222.03 Q698.806 1222.03 696.977 1225.59 Q695.172 1229.14 695.172 1236.27 Q695.172 1243.37 696.977 1246.94 Q698.806 1250.48 702.417 1250.48 Q706.051 1250.48 707.857 1246.94 Q709.685 1243.37 709.685 1236.27 Q709.685 1229.14 707.857 1225.59 Q706.051 1222.03 702.417 1222.03 M702.417 1218.33 Q708.227 1218.33 711.283 1222.93 Q714.361 1227.52 714.361 1236.27 Q714.361 1244.99 711.283 1249.6 Q708.227 1254.18 702.417 1254.18 Q696.607 1254.18 693.528 1249.6 Q690.472 1244.99 690.472 1236.27 Q690.472 1227.52 693.528 1222.93 Q696.607 1218.33 702.417 1218.33 Z" fill="#000000" fill-rule="nonzero" fill-opacity="1" /><path clip-path="url(#clip790)" d="M797.737 1271.02 Q794.125 1271.02 792.297 1274.59 Q790.491 1278.13 790.491 1285.26 Q790.491 1292.37 792.297 1295.93 Q794.125 1299.47 797.737 1299.47 Q801.371 1299.47 803.176 1295.93 Q805.005 1292.37 805.005 1285.26 Q805.005 1278.13 803.176 1274.59 Q801.371 1271.02 797.737 1271.02 M797.737 1267.32 Q803.547 1267.32 806.602 1271.93 Q809.681 1276.51 809.681 1285.26 Q809.681 1293.99 806.602 1298.59 Q803.547 1303.18 797.737 1303.18 Q791.926 1303.18 788.848 1298.59 Q785.792 1293.99 785.792 1285.26 Q785.792 1276.51 788.848 1271.93 Q791.926 1267.32 797.737 1267.32 Z" fill="#000000" fill-rule="nonzero" fill-opacity="1" /><path clip-path="url(#clip790)" d="M817.898 1296.62 L822.783 1296.62 L822.783 1302.5 L817.898 1302.5 L817.898 1296.62 Z" fill="#000000" fill-rule="nonzero" fill-opacity="1" /><path clip-path="url(#clip790)" d="M836.996 1298.57 L853.315 1298.57 L853.315 1302.5 L831.371 1302.5 L831.371 1298.57 Q834.033 1295.81 838.616 1291.18 Q843.222 1286.53 844.403 1285.19 Q846.648 1282.67 847.528 1280.93 Q848.431 1279.17 848.431 1277.48 Q848.431 1274.73 846.486 1272.99 Q844.565 1271.25 841.463 1271.25 Q839.264 1271.25 836.81 1272.02 Q834.38 1272.78 831.602 1274.33 L831.602 1269.61 Q834.426 1268.48 836.88 1267.9 Q839.334 1267.32 841.371 1267.32 Q846.741 1267.32 849.935 1270 Q853.13 1272.69 853.13 1277.18 Q853.13 1279.31 852.32 1281.23 Q851.533 1283.13 849.426 1285.72 Q848.847 1286.39 845.746 1289.61 Q842.644 1292.81 836.996 1298.57 Z" fill="#000000" fill-rule="nonzero" fill-opacity="1" /><path clip-path="url(#clip790)" d="M863.176 1267.94 L881.532 1267.94 L881.532 1271.88 L867.458 1271.88 L867.458 1280.35 Q868.477 1280 869.495 1279.84 Q870.514 1279.66 871.532 1279.66 Q877.319 1279.66 880.699 1282.83 Q884.079 1286 884.079 1291.42 Q884.079 1297 880.606 1300.1 Q877.134 1303.18 870.815 1303.18 Q868.639 1303.18 866.37 1302.81 Q864.125 1302.43 861.718 1301.69 L861.718 1297 Q863.801 1298.13 866.023 1298.68 Q868.245 1299.24 870.722 1299.24 Q874.727 1299.24 877.065 1297.13 Q879.403 1295.03 879.403 1291.42 Q879.403 1287.81 877.065 1285.7 Q874.727 1283.59 870.722 1283.59 Q868.847 1283.59 866.972 1284.01 Q865.12 1284.43 863.176 1285.31 L863.176 1267.94 Z" fill="#000000" fill-rule="nonzero" fill-opacity="1" /><path clip-path="url(#clip790)" d="M966.459 1320.02 Q962.848 1320.02 961.019 1323.58 Q959.213 1327.12 959.213 1334.25 Q959.213 1341.36 961.019 1344.92 Q962.848 1348.47 966.459 1348.47 Q970.093 1348.47 971.898 1344.92 Q973.727 1341.36 973.727 1334.25 Q973.727 1327.12 971.898 1323.58 Q970.093 1320.02 966.459 1320.02 M966.459 1316.31 Q972.269 1316.31 975.324 1320.92 Q978.403 1325.5 978.403 1334.25 Q978.403 1342.98 975.324 1347.59 Q972.269 1352.17 966.459 1352.17 Q960.648 1352.17 957.57 1347.59 Q954.514 1342.98 954.514 1334.25 Q954.514 1325.5 957.57 1320.92 Q960.648 1316.31 966.459 1316.31 Z" fill="#000000" fill-rule="nonzero" fill-opacity="1" /><path clip-path="url(#clip790)" d="M986.621 1345.62 L991.505 1345.62 L991.505 1351.5 L986.621 1351.5 L986.621 1345.62 Z" fill="#000000" fill-rule="nonzero" fill-opacity="1" /><path clip-path="url(#clip790)" d="M1001.74 1316.94 L1020.09 1316.94 L1020.09 1320.87 L1006.02 1320.87 L1006.02 1329.34 Q1007.04 1329 1008.06 1328.84 Q1009.07 1328.65 1010.09 1328.65 Q1015.88 1328.65 1019.26 1331.82 Q1022.64 1334.99 1022.64 1340.41 Q1022.64 1345.99 1019.17 1349.09 Q1015.69 1352.17 1009.38 1352.17 Q1007.2 1352.17 1004.93 1351.8 Q1002.69 1351.43 1000.28 1350.69 L1000.28 1345.99 Q1002.36 1347.12 1004.58 1347.68 Q1006.81 1348.23 1009.28 1348.23 Q1013.29 1348.23 1015.63 1346.13 Q1017.96 1344.02 1017.96 1340.41 Q1017.96 1336.8 1015.63 1334.69 Q1013.29 1332.59 1009.28 1332.59 Q1007.41 1332.59 1005.53 1333 Q1003.68 1333.42 1001.74 1334.3 L1001.74 1316.94 Z" fill="#000000" fill-rule="nonzero" fill-opacity="1" /><path clip-path="url(#clip790)" d="M1041.85 1320.02 Q1038.24 1320.02 1036.41 1323.58 Q1034.61 1327.12 1034.61 1334.25 Q1034.61 1341.36 1036.41 1344.92 Q1038.24 1348.47 1041.85 1348.47 Q1045.49 1348.47 1047.29 1344.92 Q1049.12 1341.36 1049.12 1334.25 Q1049.12 1327.12 1047.29 1323.58 Q1045.49 1320.02 1041.85 1320.02 M1041.85 1316.31 Q1047.66 1316.31 1050.72 1320.92 Q1053.8 1325.5 1053.8 1334.25 Q1053.8 1342.98 1050.72 1347.59 Q1047.66 1352.17 1041.85 1352.17 Q1036.04 1352.17 1032.96 1347.59 Q1029.91 1342.98 1029.91 1334.25 Q1029.91 1325.5 1032.96 1320.92 Q1036.04 1316.31 1041.85 1316.31 Z" fill="#000000" fill-rule="nonzero" fill-opacity="1" /><path clip-path="url(#clip790)" d="M1137.17 1369.01 Q1133.56 1369.01 1131.73 1372.57 Q1129.93 1376.12 1129.93 1383.25 Q1129.93 1390.35 1131.73 1393.92 Q1133.56 1397.46 1137.17 1397.46 Q1140.81 1397.46 1142.61 1393.92 Q1144.44 1390.35 1144.44 1383.25 Q1144.44 1376.12 1142.61 1372.57 Q1140.81 1369.01 1137.17 1369.01 M1137.17 1365.31 Q1142.98 1365.31 1146.04 1369.91 Q1149.12 1374.5 1149.12 1383.25 Q1149.12 1391.97 1146.04 1396.58 Q1142.98 1401.16 1137.17 1401.16 Q1131.36 1401.16 1128.28 1396.58 Q1125.23 1391.97 1125.23 1383.25 Q1125.23 1374.5 1128.28 1369.91 Q1131.36 1365.31 1137.17 1365.31 Z" fill="#000000" fill-rule="nonzero" fill-opacity="1" /><path clip-path="url(#clip790)" d="M1157.33 1394.61 L1162.22 1394.61 L1162.22 1400.49 L1157.33 1400.49 L1157.33 1394.61 Z" fill="#000000" fill-rule="nonzero" fill-opacity="1" /><path clip-path="url(#clip790)" d="M1171.22 1365.93 L1193.44 1365.93 L1193.44 1367.92 L1180.9 1400.49 L1176.01 1400.49 L1187.82 1369.87 L1171.22 1369.87 L1171.22 1365.93 Z" fill="#000000" fill-rule="nonzero" fill-opacity="1" /><path clip-path="url(#clip790)" d="M1202.61 1365.93 L1220.97 1365.93 L1220.97 1369.87 L1206.89 1369.87 L1206.89 1378.34 Q1207.91 1377.99 1208.93 1377.83 Q1209.95 1377.64 1210.97 1377.64 Q1216.75 1377.64 1220.13 1380.81 Q1223.51 1383.99 1223.51 1389.4 Q1223.51 1394.98 1220.04 1398.08 Q1216.57 1401.16 1210.25 1401.16 Q1208.07 1401.16 1205.81 1400.79 Q1203.56 1400.42 1201.15 1399.68 L1201.15 1394.98 Q1203.24 1396.12 1205.46 1396.67 Q1207.68 1397.23 1210.16 1397.23 Q1214.16 1397.23 1216.5 1395.12 Q1218.84 1393.01 1218.84 1389.4 Q1218.84 1385.79 1216.5 1383.69 Q1214.16 1381.58 1210.16 1381.58 Q1208.28 1381.58 1206.41 1382 Q1204.56 1382.41 1202.61 1383.29 L1202.61 1365.93 Z" fill="#000000" fill-rule="nonzero" fill-opacity="1" /><path clip-path="url(#clip790)" d="M1296.7 1445.55 L1304.34 1445.55 L1304.34 1419.18 L1296.03 1420.85 L1296.03 1416.59 L1304.3 1414.92 L1308.97 1414.92 L1308.97 1445.55 L1316.61 1445.55 L1316.61 1449.48 L1296.7 1449.48 L1296.7 1445.55 Z" fill="#000000" fill-rule="nonzero" fill-opacity="1" /><path clip-path="url(#clip790)" d="M1326.06 1443.6 L1330.94 1443.6 L1330.94 1449.48 L1326.06 1449.48 L1326.06 1443.6 Z" fill="#000000" fill-rule="nonzero" fill-opacity="1" /><path clip-path="url(#clip790)" d="M1351.12 1418 Q1347.51 1418 1345.68 1421.57 Q1343.88 1425.11 1343.88 1432.24 Q1343.88 1439.35 1345.68 1442.91 Q1347.51 1446.45 1351.12 1446.45 Q1354.76 1446.45 1356.56 1442.91 Q1358.39 1439.35 1358.39 1432.24 Q1358.39 1425.11 1356.56 1421.57 Q1354.76 1418 1351.12 1418 M1351.12 1414.3 Q1356.93 1414.3 1359.99 1418.91 Q1363.07 1423.49 1363.07 1432.24 Q1363.07 1440.97 1359.99 1445.57 Q1356.93 1450.16 1351.12 1450.16 Q1345.31 1450.16 1342.24 1445.57 Q1339.18 1440.97 1339.18 1432.24 Q1339.18 1423.49 1342.24 1418.91 Q1345.31 1414.3 1351.12 1414.3 Z" fill="#000000" fill-rule="nonzero" fill-opacity="1" /><path clip-path="url(#clip790)" d="M1381.29 1418 Q1377.68 1418 1375.85 1421.57 Q1374.04 1425.11 1374.04 1432.24 Q1374.04 1439.35 1375.85 1442.91 Q1377.68 1446.45 1381.29 1446.45 Q1384.92 1446.45 1386.73 1442.91 Q1388.56 1439.35 1388.56 1432.24 Q1388.56 1425.11 1386.73 1421.57 Q1384.92 1418 1381.29 1418 M1381.29 1414.3 Q1387.1 1414.3 1390.15 1418.91 Q1393.23 1423.49 1393.23 1432.24 Q1393.23 1440.97 1390.15 1445.57 Q1387.1 1450.16 1381.29 1450.16 Q1375.48 1450.16 1372.4 1445.57 Q1369.34 1440.97 1369.34 1432.24 Q1369.34 1423.49 1372.4 1418.91 Q1375.48 1414.3 1381.29 1414.3 Z" fill="#000000" fill-rule="nonzero" fill-opacity="1" /><polyline clip-path="url(#clip790)" style="stroke:#000000; stroke-linecap:round; stroke-linejoin:round; stroke-width:4; stroke-opacity:1; fill:none" points="1421.58,1410.41 1837.05,1050.61 "/>
<polyline clip-path="url(#clip790)" style="stroke:#000000; stroke-linecap:round; stroke-linejoin:round; stroke-width:4; stroke-opacity:1; fill:none" points="1433.34,1400.23 1424.71,1397.74 "/>
<polyline clip-path="url(#clip790)" style="stroke:#000000; stroke-linecap:round; stroke-linejoin:round; stroke-width:4; stroke-opacity:1; fill:none" points="1531.33,1315.37 1522.69,1312.88 "/>
<polyline clip-path="url(#clip790)" style="stroke:#000000; stroke-linecap:round; stroke-linejoin:round; stroke-width:4; stroke-opacity:1; fill:none" points="1629.32,1230.51 1620.68,1228.02 "/>
<polyline clip-path="url(#clip790)" style="stroke:#000000; stroke-linecap:round; stroke-linejoin:round; stroke-width:4; stroke-opacity:1; fill:none" points="1727.3,1145.65 1718.67,1143.16 "/>
<polyline clip-path="url(#clip790)" style="stroke:#000000; stroke-linecap:round; stroke-linejoin:round; stroke-width:4; stroke-opacity:1; fill:none" points="1825.29,1060.8 1816.65,1058.3 "/>
<path clip-path="url(#clip790)" d="M1452.87 1435.35 L1460.51 1435.35 L1460.51 1408.98 L1452.2 1410.65 L1452.2 1406.39 L1460.46 1404.72 L1465.14 1404.72 L1465.14 1435.35 L1472.78 1435.35 L1472.78 1439.28 L1452.87 1439.28 L1452.87 1435.35 Z" fill="#000000" fill-rule="nonzero" fill-opacity="1" /><path clip-path="url(#clip790)" d="M1482.22 1433.4 L1487.1 1433.4 L1487.1 1439.28 L1482.22 1439.28 L1482.22 1433.4 Z" fill="#000000" fill-rule="nonzero" fill-opacity="1" /><path clip-path="url(#clip790)" d="M1507.29 1407.8 Q1503.68 1407.8 1501.85 1411.36 Q1500.04 1414.91 1500.04 1422.04 Q1500.04 1429.14 1501.85 1432.71 Q1503.68 1436.25 1507.29 1436.25 Q1510.92 1436.25 1512.73 1432.71 Q1514.56 1429.14 1514.56 1422.04 Q1514.56 1414.91 1512.73 1411.36 Q1510.92 1407.8 1507.29 1407.8 M1507.29 1404.1 Q1513.1 1404.1 1516.16 1408.7 Q1519.23 1413.29 1519.23 1422.04 Q1519.23 1430.76 1516.16 1435.37 Q1513.1 1439.95 1507.29 1439.95 Q1501.48 1439.95 1498.4 1435.37 Q1495.35 1430.76 1495.35 1422.04 Q1495.35 1413.29 1498.4 1408.7 Q1501.48 1404.1 1507.29 1404.1 Z" fill="#000000" fill-rule="nonzero" fill-opacity="1" /><path clip-path="url(#clip790)" d="M1537.45 1407.8 Q1533.84 1407.8 1532.01 1411.36 Q1530.21 1414.91 1530.21 1422.04 Q1530.21 1429.14 1532.01 1432.71 Q1533.84 1436.25 1537.45 1436.25 Q1541.09 1436.25 1542.89 1432.71 Q1544.72 1429.14 1544.72 1422.04 Q1544.72 1414.91 1542.89 1411.36 Q1541.09 1407.8 1537.45 1407.8 M1537.45 1404.1 Q1543.26 1404.1 1546.32 1408.7 Q1549.4 1413.29 1549.4 1422.04 Q1549.4 1430.76 1546.32 1435.37 Q1543.26 1439.95 1537.45 1439.95 Q1531.64 1439.95 1528.56 1435.37 Q1525.51 1430.76 1525.51 1422.04 Q1525.51 1413.29 1528.56 1408.7 Q1531.64 1404.1 1537.45 1404.1 Z" fill="#000000" fill-rule="nonzero" fill-opacity="1" /><path clip-path="url(#clip790)" d="M1550.85 1350.49 L1558.49 1350.49 L1558.49 1324.12 L1550.18 1325.79 L1550.18 1321.53 L1558.45 1319.86 L1563.12 1319.86 L1563.12 1350.49 L1570.76 1350.49 L1570.76 1354.42 L1550.85 1354.42 L1550.85 1350.49 Z" fill="#000000" fill-rule="nonzero" fill-opacity="1" /><path clip-path="url(#clip790)" d="M1580.21 1348.54 L1585.09 1348.54 L1585.09 1354.42 L1580.21 1354.42 L1580.21 1348.54 Z" fill="#000000" fill-rule="nonzero" fill-opacity="1" /><path clip-path="url(#clip790)" d="M1599.3 1350.49 L1615.62 1350.49 L1615.62 1354.42 L1593.68 1354.42 L1593.68 1350.49 Q1596.34 1347.73 1600.92 1343.1 Q1605.53 1338.45 1606.71 1337.11 Q1608.96 1334.58 1609.84 1332.85 Q1610.74 1331.09 1610.74 1329.4 Q1610.74 1326.64 1608.79 1324.91 Q1606.87 1323.17 1603.77 1323.17 Q1601.57 1323.17 1599.12 1323.94 Q1596.69 1324.7 1593.91 1326.25 L1593.91 1321.53 Q1596.73 1320.39 1599.19 1319.82 Q1601.64 1319.24 1603.68 1319.24 Q1609.05 1319.24 1612.24 1321.92 Q1615.44 1324.61 1615.44 1329.1 Q1615.44 1331.23 1614.63 1333.15 Q1613.84 1335.05 1611.73 1337.64 Q1611.16 1338.31 1608.05 1341.53 Q1604.95 1344.72 1599.3 1350.49 Z" fill="#000000" fill-rule="nonzero" fill-opacity="1" /><path clip-path="url(#clip790)" d="M1625.48 1319.86 L1643.84 1319.86 L1643.84 1323.8 L1629.77 1323.8 L1629.77 1332.27 Q1630.78 1331.92 1631.8 1331.76 Q1632.82 1331.57 1633.84 1331.57 Q1639.63 1331.57 1643.01 1334.75 Q1646.39 1337.92 1646.39 1343.33 Q1646.39 1348.91 1642.91 1352.01 Q1639.44 1355.09 1633.12 1355.09 Q1630.95 1355.09 1628.68 1354.72 Q1626.43 1354.35 1624.03 1353.61 L1624.03 1348.91 Q1626.11 1350.05 1628.33 1350.6 Q1630.55 1351.16 1633.03 1351.16 Q1637.03 1351.16 1639.37 1349.05 Q1641.71 1346.95 1641.71 1343.33 Q1641.71 1339.72 1639.37 1337.62 Q1637.03 1335.51 1633.03 1335.51 Q1631.16 1335.51 1629.28 1335.93 Q1627.43 1336.34 1625.48 1337.22 L1625.48 1319.86 Z" fill="#000000" fill-rule="nonzero" fill-opacity="1" /><path clip-path="url(#clip790)" d="M1648.84 1265.63 L1656.48 1265.63 L1656.48 1239.26 L1648.17 1240.93 L1648.17 1236.67 L1656.43 1235 L1661.11 1235 L1661.11 1265.63 L1668.75 1265.63 L1668.75 1269.56 L1648.84 1269.56 L1648.84 1265.63 Z" fill="#000000" fill-rule="nonzero" fill-opacity="1" /><path clip-path="url(#clip790)" d="M1678.19 1263.68 L1683.08 1263.68 L1683.08 1269.56 L1678.19 1269.56 L1678.19 1263.68 Z" fill="#000000" fill-rule="nonzero" fill-opacity="1" /><path clip-path="url(#clip790)" d="M1693.31 1235 L1711.66 1235 L1711.66 1238.94 L1697.59 1238.94 L1697.59 1247.41 Q1698.61 1247.06 1699.63 1246.9 Q1700.65 1246.72 1701.67 1246.72 Q1707.45 1246.72 1710.83 1249.89 Q1714.21 1253.06 1714.21 1258.48 Q1714.21 1264.05 1710.74 1267.16 Q1707.27 1270.23 1700.95 1270.23 Q1698.77 1270.23 1696.5 1269.86 Q1694.26 1269.49 1691.85 1268.75 L1691.85 1264.05 Q1693.93 1265.19 1696.16 1265.74 Q1698.38 1266.3 1700.85 1266.3 Q1704.86 1266.3 1707.2 1264.19 Q1709.54 1262.09 1709.54 1258.48 Q1709.54 1254.86 1707.2 1252.76 Q1704.86 1250.65 1700.85 1250.65 Q1698.98 1250.65 1697.1 1251.07 Q1695.25 1251.48 1693.31 1252.36 L1693.31 1235 Z" fill="#000000" fill-rule="nonzero" fill-opacity="1" /><path clip-path="url(#clip790)" d="M1733.42 1238.08 Q1729.81 1238.08 1727.98 1241.65 Q1726.18 1245.19 1726.18 1252.32 Q1726.18 1259.42 1727.98 1262.99 Q1729.81 1266.53 1733.42 1266.53 Q1737.06 1266.53 1738.86 1262.99 Q1740.69 1259.42 1740.69 1252.32 Q1740.69 1245.19 1738.86 1241.65 Q1737.06 1238.08 1733.42 1238.08 M1733.42 1234.38 Q1739.23 1234.38 1742.29 1238.98 Q1745.37 1243.57 1745.37 1252.32 Q1745.37 1261.04 1742.29 1265.65 Q1739.23 1270.23 1733.42 1270.23 Q1727.61 1270.23 1724.54 1265.65 Q1721.48 1261.04 1721.48 1252.32 Q1721.48 1243.57 1724.54 1238.98 Q1727.61 1234.38 1733.42 1234.38 Z" fill="#000000" fill-rule="nonzero" fill-opacity="1" /><path clip-path="url(#clip790)" d="M1746.83 1180.77 L1754.47 1180.77 L1754.47 1154.4 L1746.16 1156.07 L1746.16 1151.81 L1754.42 1150.14 L1759.1 1150.14 L1759.1 1180.77 L1766.73 1180.77 L1766.73 1184.7 L1746.83 1184.7 L1746.83 1180.77 Z" fill="#000000" fill-rule="nonzero" fill-opacity="1" /><path clip-path="url(#clip790)" d="M1776.18 1178.82 L1781.06 1178.82 L1781.06 1184.7 L1776.18 1184.7 L1776.18 1178.82 Z" fill="#000000" fill-rule="nonzero" fill-opacity="1" /><path clip-path="url(#clip790)" d="M1790.07 1150.14 L1812.29 1150.14 L1812.29 1152.14 L1799.74 1184.7 L1794.86 1184.7 L1806.67 1154.08 L1790.07 1154.08 L1790.07 1150.14 Z" fill="#000000" fill-rule="nonzero" fill-opacity="1" /><path clip-path="url(#clip790)" d="M1821.46 1150.14 L1839.81 1150.14 L1839.81 1154.08 L1825.74 1154.08 L1825.74 1162.55 Q1826.76 1162.2 1827.78 1162.04 Q1828.79 1161.86 1829.81 1161.86 Q1835.6 1161.86 1838.98 1165.03 Q1842.36 1168.2 1842.36 1173.62 Q1842.36 1179.2 1838.89 1182.3 Q1835.42 1185.38 1829.1 1185.38 Q1826.92 1185.38 1824.65 1185.01 Q1822.41 1184.64 1820 1183.89 L1820 1179.2 Q1822.08 1180.33 1824.3 1180.89 Q1826.53 1181.44 1829 1181.44 Q1833.01 1181.44 1835.35 1179.33 Q1837.68 1177.23 1837.68 1173.62 Q1837.68 1170.01 1835.35 1167.9 Q1833.01 1165.79 1829 1165.79 Q1827.13 1165.79 1825.25 1166.21 Q1823.4 1166.63 1821.46 1167.51 L1821.46 1150.14 Z" fill="#000000" fill-rule="nonzero" fill-opacity="1" /><path clip-path="url(#clip790)" d="M1849.77 1095.91 L1866.09 1095.91 L1866.09 1099.85 L1844.14 1099.85 L1844.14 1095.91 Q1846.8 1093.16 1851.39 1088.53 Q1855.99 1083.87 1857.18 1082.53 Q1859.42 1080.01 1860.3 1078.27 Q1861.2 1076.51 1861.2 1074.82 Q1861.2 1072.07 1859.26 1070.33 Q1857.34 1068.6 1854.24 1068.6 Q1852.04 1068.6 1849.58 1069.36 Q1847.15 1070.12 1844.37 1071.67 L1844.37 1066.95 Q1847.2 1065.82 1849.65 1065.24 Q1852.11 1064.66 1854.14 1064.66 Q1859.51 1064.66 1862.71 1067.35 Q1865.9 1070.03 1865.9 1074.52 Q1865.9 1076.65 1865.09 1078.57 Q1864.3 1080.47 1862.2 1083.06 Q1861.62 1083.73 1858.52 1086.95 Q1855.42 1090.15 1849.77 1095.91 Z" fill="#000000" fill-rule="nonzero" fill-opacity="1" /><path clip-path="url(#clip790)" d="M1875.9 1093.97 L1880.79 1093.97 L1880.79 1099.85 L1875.9 1099.85 L1875.9 1093.97 Z" fill="#000000" fill-rule="nonzero" fill-opacity="1" /><path clip-path="url(#clip790)" d="M1900.97 1068.36 Q1897.36 1068.36 1895.53 1071.93 Q1893.73 1075.47 1893.73 1082.6 Q1893.73 1089.71 1895.53 1093.27 Q1897.36 1096.81 1900.97 1096.81 Q1904.61 1096.81 1906.41 1093.27 Q1908.24 1089.71 1908.24 1082.6 Q1908.24 1075.47 1906.41 1071.93 Q1904.61 1068.36 1900.97 1068.36 M1900.97 1064.66 Q1906.78 1064.66 1909.84 1069.27 Q1912.92 1073.85 1912.92 1082.6 Q1912.92 1091.33 1909.84 1095.93 Q1906.78 1100.52 1900.97 1100.52 Q1895.16 1100.52 1892.08 1095.93 Q1889.03 1091.33 1889.03 1082.6 Q1889.03 1073.85 1892.08 1069.27 Q1895.16 1064.66 1900.97 1064.66 Z" fill="#000000" fill-rule="nonzero" fill-opacity="1" /><path clip-path="url(#clip790)" d="M1931.13 1068.36 Q1927.52 1068.36 1925.69 1071.93 Q1923.89 1075.47 1923.89 1082.6 Q1923.89 1089.71 1925.69 1093.27 Q1927.52 1096.81 1931.13 1096.81 Q1934.77 1096.81 1936.57 1093.27 Q1938.4 1089.71 1938.4 1082.6 Q1938.4 1075.47 1936.57 1071.93 Q1934.77 1068.36 1931.13 1068.36 M1931.13 1064.66 Q1936.94 1064.66 1940 1069.27 Q1943.08 1073.85 1943.08 1082.6 Q1943.08 1091.33 1940 1095.93 Q1936.94 1100.52 1931.13 1100.52 Q1925.32 1100.52 1922.24 1095.93 Q1919.19 1091.33 1919.19 1082.6 Q1919.19 1073.85 1922.24 1069.27 Q1925.32 1064.66 1931.13 1064.66 Z" fill="#000000" fill-rule="nonzero" fill-opacity="1" /><polyline clip-path="url(#clip790)" style="stroke:#000000; stroke-linecap:round; stroke-linejoin:round; stroke-width:4; stroke-opacity:1; fill:none" points="701.983,1202.68 701.983,483.08 "/>
<polyline clip-path="url(#clip790)" style="stroke:#000000; stroke-linecap:round; stroke-linejoin:round; stroke-width:4; stroke-opacity:1; fill:none" points="701.983,1182.32 706.968,1178 "/>
<polyline clip-path="url(#clip790)" style="stroke:#000000; stroke-linecap:round; stroke-linejoin:round; stroke-width:4; stroke-opacity:1; fill:none" points="701.983,1012.6 706.968,1008.28 "/>
<polyline clip-path="url(#clip790)" style="stroke:#000000; stroke-linecap:round; stroke-linejoin:round; stroke-width:4; stroke-opacity:1; fill:none" points="701.983,842.881 706.968,838.563 "/>
<polyline clip-path="url(#clip790)" style="stroke:#000000; stroke-linecap:round; stroke-linejoin:round; stroke-width:4; stroke-opacity:1; fill:none" points="701.983,673.163 706.968,668.846 "/>
<polyline clip-path="url(#clip790)" style="stroke:#000000; stroke-linecap:round; stroke-linejoin:round; stroke-width:4; stroke-opacity:1; fill:none" points="701.983,503.446 706.968,499.128 "/>
<path clip-path="url(#clip790)" d="M585.845 1168.11 Q582.234 1168.11 580.406 1171.68 Q578.6 1175.22 578.6 1182.35 Q578.6 1189.46 580.406 1193.02 Q582.234 1196.56 585.845 1196.56 Q589.48 1196.56 591.285 1193.02 Q593.114 1189.46 593.114 1182.35 Q593.114 1175.22 591.285 1171.68 Q589.48 1168.11 585.845 1168.11 M585.845 1164.41 Q591.655 1164.41 594.711 1169.02 Q597.79 1173.6 597.79 1182.35 Q597.79 1191.08 594.711 1195.68 Q591.655 1200.27 585.845 1200.27 Q580.035 1200.27 576.956 1195.68 Q573.901 1191.08 573.901 1182.35 Q573.901 1173.6 576.956 1169.02 Q580.035 1164.41 585.845 1164.41 Z" fill="#000000" fill-rule="nonzero" fill-opacity="1" /><path clip-path="url(#clip790)" d="M606.007 1193.72 L610.892 1193.72 L610.892 1199.6 L606.007 1199.6 L606.007 1193.72 Z" fill="#000000" fill-rule="nonzero" fill-opacity="1" /><path clip-path="url(#clip790)" d="M631.077 1168.11 Q627.465 1168.11 625.637 1171.68 Q623.831 1175.22 623.831 1182.35 Q623.831 1189.46 625.637 1193.02 Q627.465 1196.56 631.077 1196.56 Q634.711 1196.56 636.516 1193.02 Q638.345 1189.46 638.345 1182.35 Q638.345 1175.22 636.516 1171.68 Q634.711 1168.11 631.077 1168.11 M631.077 1164.41 Q636.887 1164.41 639.942 1169.02 Q643.021 1173.6 643.021 1182.35 Q643.021 1191.08 639.942 1195.68 Q636.887 1200.27 631.077 1200.27 Q625.266 1200.27 622.188 1195.68 Q619.132 1191.08 619.132 1182.35 Q619.132 1173.6 622.188 1169.02 Q625.266 1164.41 631.077 1164.41 Z" fill="#000000" fill-rule="nonzero" fill-opacity="1" /><path clip-path="url(#clip790)" d="M661.238 1168.11 Q657.627 1168.11 655.799 1171.68 Q653.993 1175.22 653.993 1182.35 Q653.993 1189.46 655.799 1193.02 Q657.627 1196.56 661.238 1196.56 Q664.873 1196.56 666.678 1193.02 Q668.507 1189.46 668.507 1182.35 Q668.507 1175.22 666.678 1171.68 Q664.873 1168.11 661.238 1168.11 M661.238 1164.41 Q667.049 1164.41 670.104 1169.02 Q673.183 1173.6 673.183 1182.35 Q673.183 1191.08 670.104 1195.68 Q667.049 1200.27 661.238 1200.27 Q655.428 1200.27 652.35 1195.68 Q649.294 1191.08 649.294 1182.35 Q649.294 1173.6 652.35 1169.02 Q655.428 1164.41 661.238 1164.41 Z" fill="#000000" fill-rule="nonzero" fill-opacity="1" /><path clip-path="url(#clip790)" d="M586.841 998.397 Q583.23 998.397 581.401 1001.96 Q579.595 1005.5 579.595 1012.63 Q579.595 1019.74 581.401 1023.3 Q583.23 1026.85 586.841 1026.85 Q590.475 1026.85 592.28 1023.3 Q594.109 1019.74 594.109 1012.63 Q594.109 1005.5 592.28 1001.96 Q590.475 998.397 586.841 998.397 M586.841 994.693 Q592.651 994.693 595.706 999.3 Q598.785 1003.88 598.785 1012.63 Q598.785 1021.36 595.706 1025.97 Q592.651 1030.55 586.841 1030.55 Q581.031 1030.55 577.952 1025.97 Q574.896 1021.36 574.896 1012.63 Q574.896 1003.88 577.952 999.3 Q581.031 994.693 586.841 994.693 Z" fill="#000000" fill-rule="nonzero" fill-opacity="1" /><path clip-path="url(#clip790)" d="M607.003 1024 L611.887 1024 L611.887 1029.88 L607.003 1029.88 L607.003 1024 Z" fill="#000000" fill-rule="nonzero" fill-opacity="1" /><path clip-path="url(#clip790)" d="M626.1 1025.94 L642.419 1025.94 L642.419 1029.88 L620.475 1029.88 L620.475 1025.94 Q623.137 1023.19 627.72 1018.56 Q632.327 1013.91 633.507 1012.56 Q635.752 1010.04 636.632 1008.3 Q637.535 1006.55 637.535 1004.86 Q637.535 1002.1 635.59 1000.36 Q633.669 998.628 630.567 998.628 Q628.368 998.628 625.915 999.392 Q623.484 1000.16 620.706 1001.71 L620.706 996.985 Q623.53 995.851 625.984 995.272 Q628.438 994.693 630.475 994.693 Q635.845 994.693 639.04 997.378 Q642.234 1000.06 642.234 1004.55 Q642.234 1006.68 641.424 1008.61 Q640.637 1010.5 638.53 1013.1 Q637.952 1013.77 634.85 1016.98 Q631.748 1020.18 626.1 1025.94 Z" fill="#000000" fill-rule="nonzero" fill-opacity="1" /><path clip-path="url(#clip790)" d="M652.28 995.318 L670.637 995.318 L670.637 999.253 L656.563 999.253 L656.563 1007.73 Q657.581 1007.38 658.6 1007.22 Q659.618 1007.03 660.637 1007.03 Q666.424 1007.03 669.803 1010.2 Q673.183 1013.37 673.183 1018.79 Q673.183 1024.37 669.711 1027.47 Q666.238 1030.55 659.919 1030.55 Q657.743 1030.55 655.475 1030.18 Q653.229 1029.81 650.822 1029.07 L650.822 1024.37 Q652.905 1025.5 655.127 1026.06 Q657.35 1026.61 659.826 1026.61 Q663.831 1026.61 666.169 1024.51 Q668.507 1022.4 668.507 1018.79 Q668.507 1015.18 666.169 1013.07 Q663.831 1010.97 659.826 1010.97 Q657.951 1010.97 656.076 1011.38 Q654.225 1011.8 652.28 1012.68 L652.28 995.318 Z" fill="#000000" fill-rule="nonzero" fill-opacity="1" /><path clip-path="url(#clip790)" d="M585.845 828.68 Q582.234 828.68 580.406 832.244 Q578.6 835.786 578.6 842.916 Q578.6 850.022 580.406 853.587 Q582.234 857.128 585.845 857.128 Q589.48 857.128 591.285 853.587 Q593.114 850.022 593.114 842.916 Q593.114 835.786 591.285 832.244 Q589.48 828.68 585.845 828.68 M585.845 824.976 Q591.655 824.976 594.711 829.582 Q597.79 834.166 597.79 842.916 Q597.79 851.642 594.711 856.249 Q591.655 860.832 585.845 860.832 Q580.035 860.832 576.956 856.249 Q573.901 851.642 573.901 842.916 Q573.901 834.166 576.956 829.582 Q580.035 824.976 585.845 824.976 Z" fill="#000000" fill-rule="nonzero" fill-opacity="1" /><path clip-path="url(#clip790)" d="M606.007 854.281 L610.892 854.281 L610.892 860.161 L606.007 860.161 L606.007 854.281 Z" fill="#000000" fill-rule="nonzero" fill-opacity="1" /><path clip-path="url(#clip790)" d="M621.123 825.601 L639.479 825.601 L639.479 829.536 L625.405 829.536 L625.405 838.008 Q626.424 837.661 627.442 837.499 Q628.461 837.314 629.479 837.314 Q635.266 837.314 638.646 840.485 Q642.026 843.656 642.026 849.073 Q642.026 854.652 638.553 857.753 Q635.081 860.832 628.762 860.832 Q626.586 860.832 624.317 860.462 Q622.072 860.091 619.665 859.351 L619.665 854.652 Q621.748 855.786 623.97 856.341 Q626.192 856.897 628.669 856.897 Q632.674 856.897 635.012 854.791 Q637.35 852.684 637.35 849.073 Q637.35 845.462 635.012 843.355 Q632.674 841.249 628.669 841.249 Q626.794 841.249 624.919 841.666 Q623.067 842.082 621.123 842.962 L621.123 825.601 Z" fill="#000000" fill-rule="nonzero" fill-opacity="1" /><path clip-path="url(#clip790)" d="M661.238 828.68 Q657.627 828.68 655.799 832.244 Q653.993 835.786 653.993 842.916 Q653.993 850.022 655.799 853.587 Q657.627 857.128 661.238 857.128 Q664.873 857.128 666.678 853.587 Q668.507 850.022 668.507 842.916 Q668.507 835.786 666.678 832.244 Q664.873 828.68 661.238 828.68 M661.238 824.976 Q667.049 824.976 670.104 829.582 Q673.183 834.166 673.183 842.916 Q673.183 851.642 670.104 856.249 Q667.049 860.832 661.238 860.832 Q655.428 860.832 652.35 856.249 Q649.294 851.642 649.294 842.916 Q649.294 834.166 652.35 829.582 Q655.428 824.976 661.238 824.976 Z" fill="#000000" fill-rule="nonzero" fill-opacity="1" /><path clip-path="url(#clip790)" d="M586.841 658.962 Q583.23 658.962 581.401 662.527 Q579.595 666.069 579.595 673.198 Q579.595 680.305 581.401 683.869 Q583.23 687.411 586.841 687.411 Q590.475 687.411 592.28 683.869 Q594.109 680.305 594.109 673.198 Q594.109 666.069 592.28 662.527 Q590.475 658.962 586.841 658.962 M586.841 655.258 Q592.651 655.258 595.706 659.865 Q598.785 664.448 598.785 673.198 Q598.785 681.925 595.706 686.531 Q592.651 691.115 586.841 691.115 Q581.031 691.115 577.952 686.531 Q574.896 681.925 574.896 673.198 Q574.896 664.448 577.952 659.865 Q581.031 655.258 586.841 655.258 Z" fill="#000000" fill-rule="nonzero" fill-opacity="1" /><path clip-path="url(#clip790)" d="M607.003 684.564 L611.887 684.564 L611.887 690.443 L607.003 690.443 L607.003 684.564 Z" fill="#000000" fill-rule="nonzero" fill-opacity="1" /><path clip-path="url(#clip790)" d="M620.891 655.883 L643.114 655.883 L643.114 657.874 L630.567 690.443 L625.683 690.443 L637.489 659.819 L620.891 659.819 L620.891 655.883 Z" fill="#000000" fill-rule="nonzero" fill-opacity="1" /><path clip-path="url(#clip790)" d="M652.28 655.883 L670.637 655.883 L670.637 659.819 L656.563 659.819 L656.563 668.291 Q657.581 667.944 658.6 667.782 Q659.618 667.596 660.637 667.596 Q666.424 667.596 669.803 670.768 Q673.183 673.939 673.183 679.356 Q673.183 684.934 669.711 688.036 Q666.238 691.115 659.919 691.115 Q657.743 691.115 655.475 690.744 Q653.229 690.374 650.822 689.633 L650.822 684.934 Q652.905 686.068 655.127 686.624 Q657.35 687.18 659.826 687.18 Q663.831 687.18 666.169 685.073 Q668.507 682.967 668.507 679.356 Q668.507 675.744 666.169 673.638 Q663.831 671.532 659.826 671.532 Q657.951 671.532 656.076 671.948 Q654.225 672.365 652.28 673.244 L652.28 655.883 Z" fill="#000000" fill-rule="nonzero" fill-opacity="1" /><path clip-path="url(#clip790)" d="M576.656 516.791 L584.294 516.791 L584.294 490.425 L575.984 492.092 L575.984 487.833 L584.248 486.166 L588.924 486.166 L588.924 516.791 L596.563 516.791 L596.563 520.726 L576.656 520.726 L576.656 516.791 Z" fill="#000000" fill-rule="nonzero" fill-opacity="1" /><path clip-path="url(#clip790)" d="M606.007 514.846 L610.892 514.846 L610.892 520.726 L606.007 520.726 L606.007 514.846 Z" fill="#000000" fill-rule="nonzero" fill-opacity="1" /><path clip-path="url(#clip790)" d="M631.077 489.245 Q627.465 489.245 625.637 492.809 Q623.831 496.351 623.831 503.481 Q623.831 510.587 625.637 514.152 Q627.465 517.694 631.077 517.694 Q634.711 517.694 636.516 514.152 Q638.345 510.587 638.345 503.481 Q638.345 496.351 636.516 492.809 Q634.711 489.245 631.077 489.245 M631.077 485.541 Q636.887 485.541 639.942 490.147 Q643.021 494.731 643.021 503.481 Q643.021 512.208 639.942 516.814 Q636.887 521.397 631.077 521.397 Q625.266 521.397 622.188 516.814 Q619.132 512.208 619.132 503.481 Q619.132 494.731 622.188 490.147 Q625.266 485.541 631.077 485.541 Z" fill="#000000" fill-rule="nonzero" fill-opacity="1" /><path clip-path="url(#clip790)" d="M661.238 489.245 Q657.627 489.245 655.799 492.809 Q653.993 496.351 653.993 503.481 Q653.993 510.587 655.799 514.152 Q657.627 517.694 661.238 517.694 Q664.873 517.694 666.678 514.152 Q668.507 510.587 668.507 503.481 Q668.507 496.351 666.678 492.809 Q664.873 489.245 661.238 489.245 M661.238 485.541 Q667.049 485.541 670.104 490.147 Q673.183 494.731 673.183 503.481 Q673.183 512.208 670.104 516.814 Q667.049 521.397 661.238 521.397 Q655.428 521.397 652.35 516.814 Q649.294 512.208 649.294 503.481 Q649.294 494.731 652.35 490.147 Q655.428 485.541 661.238 485.541 Z" fill="#000000" fill-rule="nonzero" fill-opacity="1" /><circle clip-path="url(#clip792)" cx="734.107" cy="1178.01" r="14.4" fill="#009af9" fill-rule="evenodd" fill-opacity="1" stroke="#000000" stroke-opacity="1" stroke-width="3.2"/>
<circle clip-path="url(#clip792)" cx="734.107" cy="1178.01" r="14.4" fill="#009af9" fill-rule="evenodd" fill-opacity="1" stroke="#000000" stroke-opacity="1" stroke-width="3.2"/>
<circle clip-path="url(#clip792)" cx="734.107" cy="1178.01" r="14.4" fill="#009af9" fill-rule="evenodd" fill-opacity="1" stroke="#000000" stroke-opacity="1" stroke-width="3.2"/>
<path clip-path="url(#clip790)" d="M2011.46 198.898 L2280.54 198.898 L2280.54 95.2176 L2011.46 95.2176  Z" fill="#ffffff" fill-rule="evenodd" fill-opacity="1"/>
<polyline clip-path="url(#clip790)" style="stroke:#000000; stroke-linecap:round; stroke-linejoin:round; stroke-width:4; stroke-opacity:1; fill:none" points="2011.46,198.898 2280.54,198.898 2280.54,95.2176 2011.46,95.2176 2011.46,198.898 "/>
<circle clip-path="url(#clip790)" cx="2107.75" cy="147.058" r="20.48" fill="#009af9" fill-rule="evenodd" fill-opacity="1" stroke="#000000" stroke-opacity="1" stroke-width="4.55111"/>
<path clip-path="url(#clip790)" d="M2217.88 166.745 Q2216.07 171.375 2214.36 172.787 Q2212.65 174.199 2209.78 174.199 L2206.38 174.199 L2206.38 170.634 L2208.88 170.634 Q2210.63 170.634 2211.61 169.8 Q2212.58 168.967 2213.76 165.865 L2214.52 163.921 L2204.04 138.412 L2208.55 138.412 L2216.65 158.689 L2224.76 138.412 L2229.27 138.412 L2217.88 166.745 Z" fill="#000000" fill-rule="nonzero" fill-opacity="1" /><path clip-path="url(#clip790)" d="M2236.56 160.402 L2244.2 160.402 L2244.2 134.037 L2235.89 135.703 L2235.89 131.444 L2244.15 129.778 L2248.83 129.778 L2248.83 160.402 L2256.47 160.402 L2256.47 164.338 L2236.56 164.338 L2236.56 160.402 Z" fill="#000000" fill-rule="nonzero" fill-opacity="1" /></svg>
