<?xml version="1.0" standalone="no"?>
<!DOCTYPE svg PUBLIC "-//W3C//DTD SVG 20010904//EN"
 "http://www.w3.org/TR/2001/REC-SVG-20010904/DTD/svg10.dtd">
<svg version="1.0" xmlns="http://www.w3.org/2000/svg"
 width="258.000000pt" height="258.000000pt" viewBox="0 0 258.000000 258.000000"
 preserveAspectRatio="xMidYMid meet">
<metadata>
Created by potrace 1.11, written by Peter Selinger 2001-2013
</metadata>
<g transform="translate(0.000000,258.000000) scale(0.100000,-0.100000)"
fill="#000000" stroke="none">
<path d="M1193 2485 c-64 -19 -119 -64 -144 -118 -21 -44 -23 -63 -24 -230 -1
-167 -3 -186 -23 -224 -13 -24 -20 -43 -17 -43 4 0 -3 -13 -14 -29 -12 -16
-21 -32 -21 -35 0 -5 -55 -90 -147 -228 -18 -26 -33 -51 -33 -55 0 -3 -6 -14
-14 -22 -43 -48 -131 -258 -171 -406 -23 -88 -25 -97 -32 -133 -8 -47 19 -41
45 9 8 15 24 37 36 50 12 13 32 42 46 64 30 51 87 115 94 107 3 -3 6 0 6 7 0
7 5 9 11 6 6 -4 16 1 24 11 12 17 13 15 14 -16 1 -19 3 -60 5 -90 2 -38 -2
-67 -16 -100 -11 -25 -21 -54 -23 -65 -2 -11 -8 -36 -14 -55 -10 -31 -24 -118
-24 -145 1 -76 37 -196 94 -310 36 -73 44 -102 40 -145 -2 -24 -45 -68 -72
-75 -25 -6 -79 -49 -79 -63 1 -21 22 -33 67 -37 32 -2 65 -13 88 -29 29 -20
41 -23 56 -15 10 5 19 7 19 4 0 -3 12 2 26 11 26 17 84 27 84 14 0 -4 10 -7
22 -6 31 2 31 32 -1 69 -43 49 -60 88 -50 115 5 12 13 22 19 22 5 0 9 5 8 12
-2 7 3 13 10 14 6 1 13 3 15 4 13 13 121 0 202 -24 46 -13 68 -17 125 -20 83
-5 76 -4 93 -20 16 -16 15 -84 -3 -130 -5 -15 -10 -38 -10 -52 0 -19 4 -23 23
-20 12 3 25 5 29 5 4 1 14 8 22 16 13 14 25 14 74 5 63 -11 81 -8 123 23 15
10 41 22 59 26 20 4 34 13 36 23 2 16 -40 64 -54 62 -4 -1 -11 0 -17 1 -5 2
-40 9 -77 15 l-68 12 0 37 c0 31 29 96 49 111 19 14 54 76 78 137 25 65 26 77
27 268 0 110 -1 235 -4 277 -4 69 -2 80 16 98 19 20 21 20 40 3 36 -33 63 -79
88 -154 34 -102 37 -142 16 -223 -20 -76 -19 -86 10 -86 24 0 40 28 45 78 2
20 8 57 14 81 10 45 8 201 -4 255 -34 159 -53 225 -85 282 -24 42 -115 192
-140 229 -8 12 -28 42 -44 66 -16 24 -34 49 -40 55 -6 7 -28 32 -48 55 -20 24
-49 58 -63 74 -88 100 -124 179 -121 263 2 53 7 69 41 118 22 32 58 70 80 86
22 16 48 35 58 43 9 8 20 15 23 15 10 0 34 28 34 40 0 9 -23 11 -87 5 -156
-12 -170 -12 -250 8 -101 24 -149 27 -200 12z"/>
</g>
</svg>
