<?xml version="1.0" encoding="utf-8"?>
<svg xmlns="http://www.w3.org/2000/svg" xmlns:xlink="http://www.w3.org/1999/xlink" width="600" height="400" viewBox="0 0 2400 1600">
<defs>
  <clipPath id="clip170">
    <rect x="0" y="0" width="2400" height="1600"/>
  </clipPath>
</defs>
<path clip-path="url(#clip170)" d="M0 1600 L2400 1600 L2400 0 L0 0  Z" fill="#ffffff" fill-rule="evenodd" fill-opacity="1"/>
<defs>
  <clipPath id="clip171">
    <rect x="480" y="0" width="1681" height="1600"/>
  </clipPath>
</defs>
<defs>
  <clipPath id="clip172">
    <rect x="138" y="47" width="2215" height="1440"/>
  </clipPath>
</defs>
<path clip-path="url(#clip172)" d="M885.78 1086.19 L885.78 612.054 L1152.68 374.987 L1614.96 511.857 L1614.96 985.991 L1348.06 1223.06 L885.78 1086.19  Z" fill="#ffffff" fill-rule="evenodd" fill-opacity="1"/>
<polyline clip-path="url(#clip172)" style="stroke:#000000; stroke-linecap:round; stroke-linejoin:round; stroke-width:2; stroke-opacity:0.1; fill:none" points="692.883,1206.88 1108.34,847.083 1108.34,127.481 "/>
<polyline clip-path="url(#clip172)" style="stroke:#000000; stroke-linecap:round; stroke-linejoin:round; stroke-width:2; stroke-opacity:0.1; fill:none" points="808.453,1240.25 1223.92,880.445 1223.92,160.843 "/>
<polyline clip-path="url(#clip172)" style="stroke:#000000; stroke-linecap:round; stroke-linejoin:round; stroke-width:2; stroke-opacity:0.1; fill:none" points="924.023,1273.61 1339.49,913.808 1339.49,194.206 "/>
<polyline clip-path="url(#clip172)" style="stroke:#000000; stroke-linecap:round; stroke-linejoin:round; stroke-width:2; stroke-opacity:0.1; fill:none" points="1039.59,1306.97 1455.06,947.17 1455.06,227.568 "/>
<polyline clip-path="url(#clip172)" style="stroke:#000000; stroke-linecap:round; stroke-linejoin:round; stroke-width:2; stroke-opacity:0.1; fill:none" points="1155.16,1340.33 1570.63,980.532 1570.63,260.93 "/>
<polyline clip-path="url(#clip172)" style="stroke:#000000; stroke-linecap:round; stroke-linejoin:round; stroke-width:2; stroke-opacity:0.1; fill:none" points="1270.73,1373.7 1686.2,1013.89 1686.2,294.292 "/>
<polyline clip-path="url(#clip172)" style="stroke:#000000; stroke-linecap:round; stroke-linejoin:round; stroke-width:2; stroke-opacity:0.1; fill:none" points="1386.3,1407.06 1801.77,1047.26 1801.77,327.654 "/>
<polyline clip-path="url(#clip172)" style="stroke:#000000; stroke-linecap:round; stroke-linejoin:round; stroke-width:2; stroke-opacity:0.1; fill:none" points="1459.5,1357.09 739.897,1149.36 739.897,429.757 "/>
<polyline clip-path="url(#clip172)" style="stroke:#000000; stroke-linecap:round; stroke-linejoin:round; stroke-width:2; stroke-opacity:0.1; fill:none" points="1527.93,1297.82 808.333,1090.09 808.333,370.49 "/>
<polyline clip-path="url(#clip172)" style="stroke:#000000; stroke-linecap:round; stroke-linejoin:round; stroke-width:2; stroke-opacity:0.1; fill:none" points="1596.37,1238.56 876.768,1030.83 876.768,311.224 "/>
<polyline clip-path="url(#clip172)" style="stroke:#000000; stroke-linecap:round; stroke-linejoin:round; stroke-width:2; stroke-opacity:0.1; fill:none" points="1664.81,1179.29 945.204,971.559 945.204,251.957 "/>
<polyline clip-path="url(#clip172)" style="stroke:#000000; stroke-linecap:round; stroke-linejoin:round; stroke-width:2; stroke-opacity:0.1; fill:none" points="1733.24,1120.02 1013.64,912.292 1013.64,192.69 "/>
<polyline clip-path="url(#clip172)" style="stroke:#000000; stroke-linecap:round; stroke-linejoin:round; stroke-width:2; stroke-opacity:0.1; fill:none" points="1801.68,1060.76 1082.07,853.025 1082.07,133.423 "/>
<polyline clip-path="url(#clip172)" style="stroke:#000000; stroke-linecap:round; stroke-linejoin:round; stroke-width:2; stroke-opacity:0.1; fill:none" points="678.326,1182.32 1093.79,822.515 1813.39,1030.25 "/>
<polyline clip-path="url(#clip172)" style="stroke:#000000; stroke-linecap:round; stroke-linejoin:round; stroke-width:2; stroke-opacity:0.1; fill:none" points="678.326,1002.24 1093.79,642.439 1813.39,850.17 "/>
<polyline clip-path="url(#clip172)" style="stroke:#000000; stroke-linecap:round; stroke-linejoin:round; stroke-width:2; stroke-opacity:0.1; fill:none" points="678.326,822.164 1093.79,462.363 1813.39,670.094 "/>
<polyline clip-path="url(#clip172)" style="stroke:#000000; stroke-linecap:round; stroke-linejoin:round; stroke-width:2; stroke-opacity:0.1; fill:none" points="678.326,642.088 1093.79,282.287 1813.39,490.019 "/>
<polyline clip-path="url(#clip170)" style="stroke:#000000; stroke-linecap:round; stroke-linejoin:round; stroke-width:4; stroke-opacity:1; fill:none" points="678.326,1202.68 1397.93,1410.41 "/>
<polyline clip-path="url(#clip170)" style="stroke:#000000; stroke-linecap:round; stroke-linejoin:round; stroke-width:4; stroke-opacity:1; fill:none" points="692.883,1206.88 697.868,1202.57 "/>
<polyline clip-path="url(#clip170)" style="stroke:#000000; stroke-linecap:round; stroke-linejoin:round; stroke-width:4; stroke-opacity:1; fill:none" points="808.453,1240.25 813.438,1235.93 "/>
<polyline clip-path="url(#clip170)" style="stroke:#000000; stroke-linecap:round; stroke-linejoin:round; stroke-width:4; stroke-opacity:1; fill:none" points="924.023,1273.61 929.008,1269.29 "/>
<polyline clip-path="url(#clip170)" style="stroke:#000000; stroke-linecap:round; stroke-linejoin:round; stroke-width:4; stroke-opacity:1; fill:none" points="1039.59,1306.97 1044.58,1302.65 "/>
<polyline clip-path="url(#clip170)" style="stroke:#000000; stroke-linecap:round; stroke-linejoin:round; stroke-width:4; stroke-opacity:1; fill:none" points="1155.16,1340.33 1160.15,1336.02 "/>
<polyline clip-path="url(#clip170)" style="stroke:#000000; stroke-linecap:round; stroke-linejoin:round; stroke-width:4; stroke-opacity:1; fill:none" points="1270.73,1373.7 1275.72,1369.38 "/>
<polyline clip-path="url(#clip170)" style="stroke:#000000; stroke-linecap:round; stroke-linejoin:round; stroke-width:4; stroke-opacity:1; fill:none" points="1386.3,1407.06 1391.29,1402.74 "/>
<path clip-path="url(#clip170)" d="M578.758 1234.95 L608.434 1234.95 L608.434 1238.89 L578.758 1238.89 L578.758 1234.95 Z" fill="#000000" fill-rule="nonzero" fill-opacity="1" /><path clip-path="url(#clip170)" d="M619.336 1247.84 L626.975 1247.84 L626.975 1221.48 L618.665 1223.15 L618.665 1218.89 L626.929 1217.22 L631.605 1217.22 L631.605 1247.84 L639.244 1247.84 L639.244 1251.78 L619.336 1251.78 L619.336 1247.84 Z" fill="#000000" fill-rule="nonzero" fill-opacity="1" /><path clip-path="url(#clip170)" d="M648.688 1245.9 L653.572 1245.9 L653.572 1251.78 L648.688 1251.78 L648.688 1245.9 Z" fill="#000000" fill-rule="nonzero" fill-opacity="1" /><path clip-path="url(#clip170)" d="M663.804 1217.22 L682.16 1217.22 L682.16 1221.15 L668.086 1221.15 L668.086 1229.63 Q669.105 1229.28 670.123 1229.12 Q671.142 1228.93 672.16 1228.93 Q677.947 1228.93 681.327 1232.1 Q684.706 1235.27 684.706 1240.69 Q684.706 1246.27 681.234 1249.37 Q677.762 1252.45 671.443 1252.45 Q669.267 1252.45 666.998 1252.08 Q664.753 1251.71 662.345 1250.97 L662.345 1246.27 Q664.429 1247.4 666.651 1247.96 Q668.873 1248.52 671.35 1248.52 Q675.355 1248.52 677.693 1246.41 Q680.031 1244.3 680.031 1240.69 Q680.031 1237.08 677.693 1234.97 Q675.355 1232.87 671.35 1232.87 Q669.475 1232.87 667.6 1233.28 Q665.748 1233.7 663.804 1234.58 L663.804 1217.22 Z" fill="#000000" fill-rule="nonzero" fill-opacity="1" /><path clip-path="url(#clip170)" d="M693.333 1268.31 L723.008 1268.31 L723.008 1272.25 L693.333 1272.25 L693.333 1268.31 Z" fill="#000000" fill-rule="nonzero" fill-opacity="1" /><path clip-path="url(#clip170)" d="M733.911 1281.21 L741.55 1281.21 L741.55 1254.84 L733.24 1256.51 L733.24 1252.25 L741.504 1250.58 L746.18 1250.58 L746.18 1281.21 L753.818 1281.21 L753.818 1285.14 L733.911 1285.14 L733.911 1281.21 Z" fill="#000000" fill-rule="nonzero" fill-opacity="1" /><path clip-path="url(#clip170)" d="M763.263 1279.26 L768.147 1279.26 L768.147 1285.14 L763.263 1285.14 L763.263 1279.26 Z" fill="#000000" fill-rule="nonzero" fill-opacity="1" /><path clip-path="url(#clip170)" d="M788.332 1253.66 Q784.721 1253.66 782.892 1257.22 Q781.087 1260.77 781.087 1267.9 Q781.087 1275 782.892 1278.57 Q784.721 1282.11 788.332 1282.11 Q791.966 1282.11 793.772 1278.57 Q795.601 1275 795.601 1267.9 Q795.601 1260.77 793.772 1257.22 Q791.966 1253.66 788.332 1253.66 M788.332 1249.96 Q794.142 1249.96 797.198 1254.56 Q800.276 1259.15 800.276 1267.9 Q800.276 1276.62 797.198 1281.23 Q794.142 1285.81 788.332 1285.81 Q782.522 1285.81 779.443 1281.23 Q776.388 1276.62 776.388 1267.9 Q776.388 1259.15 779.443 1254.56 Q782.522 1249.96 788.332 1249.96 Z" fill="#000000" fill-rule="nonzero" fill-opacity="1" /><path clip-path="url(#clip170)" d="M809.898 1301.67 L839.574 1301.67 L839.574 1305.61 L809.898 1305.61 L809.898 1301.67 Z" fill="#000000" fill-rule="nonzero" fill-opacity="1" /><path clip-path="url(#clip170)" d="M859.666 1287.02 Q856.055 1287.02 854.227 1290.59 Q852.421 1294.13 852.421 1301.26 Q852.421 1308.36 854.227 1311.93 Q856.055 1315.47 859.666 1315.47 Q863.301 1315.47 865.106 1311.93 Q866.935 1308.36 866.935 1301.26 Q866.935 1294.13 865.106 1290.59 Q863.301 1287.02 859.666 1287.02 M859.666 1283.32 Q865.476 1283.32 868.532 1287.92 Q871.611 1292.51 871.611 1301.26 Q871.611 1309.99 868.532 1314.59 Q865.476 1319.17 859.666 1319.17 Q853.856 1319.17 850.777 1314.59 Q847.722 1309.99 847.722 1301.26 Q847.722 1292.51 850.777 1287.92 Q853.856 1283.32 859.666 1283.32 Z" fill="#000000" fill-rule="nonzero" fill-opacity="1" /><path clip-path="url(#clip170)" d="M879.828 1312.62 L884.712 1312.62 L884.712 1318.5 L879.828 1318.5 L879.828 1312.62 Z" fill="#000000" fill-rule="nonzero" fill-opacity="1" /><path clip-path="url(#clip170)" d="M894.944 1283.94 L913.3 1283.94 L913.3 1287.88 L899.226 1287.88 L899.226 1296.35 Q900.245 1296 901.263 1295.84 Q902.282 1295.66 903.3 1295.66 Q909.087 1295.66 912.467 1298.83 Q915.847 1302 915.847 1307.42 Q915.847 1312.99 912.374 1316.1 Q908.902 1319.17 902.583 1319.17 Q900.407 1319.17 898.138 1318.8 Q895.893 1318.43 893.486 1317.69 L893.486 1312.99 Q895.569 1314.13 897.791 1314.68 Q900.013 1315.24 902.49 1315.24 Q906.495 1315.24 908.833 1313.13 Q911.171 1311.03 911.171 1307.42 Q911.171 1303.8 908.833 1301.7 Q906.495 1299.59 902.49 1299.59 Q900.615 1299.59 898.74 1300.01 Q896.888 1300.42 894.944 1301.3 L894.944 1283.94 Z" fill="#000000" fill-rule="nonzero" fill-opacity="1" /><path clip-path="url(#clip170)" d="M974.241 1320.38 Q970.63 1320.38 968.801 1323.95 Q966.996 1327.49 966.996 1334.62 Q966.996 1341.73 968.801 1345.29 Q970.63 1348.83 974.241 1348.83 Q977.875 1348.83 979.681 1345.29 Q981.509 1341.73 981.509 1334.62 Q981.509 1327.49 979.681 1323.95 Q977.875 1320.38 974.241 1320.38 M974.241 1316.68 Q980.051 1316.68 983.107 1321.29 Q986.185 1325.87 986.185 1334.62 Q986.185 1343.35 983.107 1347.95 Q980.051 1352.54 974.241 1352.54 Q968.431 1352.54 965.352 1347.95 Q962.297 1343.35 962.297 1334.62 Q962.297 1325.87 965.352 1321.29 Q968.431 1316.68 974.241 1316.68 Z" fill="#000000" fill-rule="nonzero" fill-opacity="1" /><path clip-path="url(#clip170)" d="M994.403 1345.99 L999.287 1345.99 L999.287 1351.87 L994.403 1351.87 L994.403 1345.99 Z" fill="#000000" fill-rule="nonzero" fill-opacity="1" /><path clip-path="url(#clip170)" d="M1019.47 1320.38 Q1015.86 1320.38 1014.03 1323.95 Q1012.23 1327.49 1012.23 1334.62 Q1012.23 1341.73 1014.03 1345.29 Q1015.86 1348.83 1019.47 1348.83 Q1023.11 1348.83 1024.91 1345.29 Q1026.74 1341.73 1026.74 1334.62 Q1026.74 1327.49 1024.91 1323.95 Q1023.11 1320.38 1019.47 1320.38 M1019.47 1316.68 Q1025.28 1316.68 1028.34 1321.29 Q1031.42 1325.87 1031.42 1334.62 Q1031.42 1343.35 1028.34 1347.95 Q1025.28 1352.54 1019.47 1352.54 Q1013.66 1352.54 1010.58 1347.95 Q1007.53 1343.35 1007.53 1334.62 Q1007.53 1325.87 1010.58 1321.29 Q1013.66 1316.68 1019.47 1316.68 Z" fill="#000000" fill-rule="nonzero" fill-opacity="1" /><path clip-path="url(#clip170)" d="M1090.81 1353.75 Q1087.2 1353.75 1085.37 1357.31 Q1083.56 1360.85 1083.56 1367.98 Q1083.56 1375.09 1085.37 1378.65 Q1087.2 1382.2 1090.81 1382.2 Q1094.44 1382.2 1096.25 1378.65 Q1098.07 1375.09 1098.07 1367.98 Q1098.07 1360.85 1096.25 1357.31 Q1094.44 1353.75 1090.81 1353.75 M1090.81 1350.04 Q1096.62 1350.04 1099.67 1354.65 Q1102.75 1359.23 1102.75 1367.98 Q1102.75 1376.71 1099.67 1381.32 Q1096.62 1385.9 1090.81 1385.9 Q1085 1385.9 1081.92 1381.32 Q1078.86 1376.71 1078.86 1367.98 Q1078.86 1359.23 1081.92 1354.65 Q1085 1350.04 1090.81 1350.04 Z" fill="#000000" fill-rule="nonzero" fill-opacity="1" /><path clip-path="url(#clip170)" d="M1110.97 1379.35 L1115.85 1379.35 L1115.85 1385.23 L1110.97 1385.23 L1110.97 1379.35 Z" fill="#000000" fill-rule="nonzero" fill-opacity="1" /><path clip-path="url(#clip170)" d="M1126.08 1350.67 L1144.44 1350.67 L1144.44 1354.6 L1130.37 1354.6 L1130.37 1363.08 Q1131.38 1362.73 1132.4 1362.57 Q1133.42 1362.38 1134.44 1362.38 Q1140.23 1362.38 1143.61 1365.55 Q1146.99 1368.72 1146.99 1374.14 Q1146.99 1379.72 1143.51 1382.82 Q1140.04 1385.9 1133.72 1385.9 Q1131.55 1385.9 1129.28 1385.53 Q1127.03 1385.16 1124.63 1384.42 L1124.63 1379.72 Q1126.71 1380.85 1128.93 1381.41 Q1131.15 1381.96 1133.63 1381.96 Q1137.63 1381.96 1139.97 1379.86 Q1142.31 1377.75 1142.31 1374.14 Q1142.31 1370.53 1139.97 1368.42 Q1137.63 1366.32 1133.63 1366.32 Q1131.76 1366.32 1129.88 1366.73 Q1128.03 1367.15 1126.08 1368.03 L1126.08 1350.67 Z" fill="#000000" fill-rule="nonzero" fill-opacity="1" /><path clip-path="url(#clip170)" d="M1196.19 1414.65 L1203.83 1414.65 L1203.83 1388.29 L1195.52 1389.96 L1195.52 1385.7 L1203.78 1384.03 L1208.46 1384.03 L1208.46 1414.65 L1216.1 1414.65 L1216.1 1418.59 L1196.19 1418.59 L1196.19 1414.65 Z" fill="#000000" fill-rule="nonzero" fill-opacity="1" /><path clip-path="url(#clip170)" d="M1225.54 1412.71 L1230.43 1412.71 L1230.43 1418.59 L1225.54 1418.59 L1225.54 1412.71 Z" fill="#000000" fill-rule="nonzero" fill-opacity="1" /><path clip-path="url(#clip170)" d="M1250.61 1387.11 Q1247 1387.11 1245.17 1390.67 Q1243.37 1394.22 1243.37 1401.34 Q1243.37 1408.45 1245.17 1412.02 Q1247 1415.56 1250.61 1415.56 Q1254.25 1415.56 1256.05 1412.02 Q1257.88 1408.45 1257.88 1401.34 Q1257.88 1394.22 1256.05 1390.67 Q1254.25 1387.11 1250.61 1387.11 M1250.61 1383.41 Q1256.42 1383.41 1259.48 1388.01 Q1262.56 1392.59 1262.56 1401.34 Q1262.56 1410.07 1259.48 1414.68 Q1256.42 1419.26 1250.61 1419.26 Q1244.8 1419.26 1241.72 1414.68 Q1238.67 1410.07 1238.67 1401.34 Q1238.67 1392.59 1241.72 1388.01 Q1244.8 1383.41 1250.61 1383.41 Z" fill="#000000" fill-rule="nonzero" fill-opacity="1" /><path clip-path="url(#clip170)" d="M1312.76 1448.02 L1320.4 1448.02 L1320.4 1421.65 L1312.09 1423.32 L1312.09 1419.06 L1320.35 1417.39 L1325.03 1417.39 L1325.03 1448.02 L1332.66 1448.02 L1332.66 1451.95 L1312.76 1451.95 L1312.76 1448.02 Z" fill="#000000" fill-rule="nonzero" fill-opacity="1" /><path clip-path="url(#clip170)" d="M1342.11 1446.07 L1346.99 1446.07 L1346.99 1451.95 L1342.11 1451.95 L1342.11 1446.07 Z" fill="#000000" fill-rule="nonzero" fill-opacity="1" /><path clip-path="url(#clip170)" d="M1357.22 1417.39 L1375.58 1417.39 L1375.58 1421.33 L1361.51 1421.33 L1361.51 1429.8 Q1362.52 1429.45 1363.54 1429.29 Q1364.56 1429.11 1365.58 1429.11 Q1371.37 1429.11 1374.75 1432.28 Q1378.13 1435.45 1378.13 1440.86 Q1378.13 1446.44 1374.65 1449.54 Q1371.18 1452.62 1364.86 1452.62 Q1362.69 1452.62 1360.42 1452.25 Q1358.17 1451.88 1355.77 1451.14 L1355.77 1446.44 Q1357.85 1447.58 1360.07 1448.13 Q1362.29 1448.69 1364.77 1448.69 Q1368.77 1448.69 1371.11 1446.58 Q1373.45 1444.48 1373.45 1440.86 Q1373.45 1437.25 1371.11 1435.15 Q1368.77 1433.04 1364.77 1433.04 Q1362.9 1433.04 1361.02 1433.46 Q1359.17 1433.87 1357.22 1434.75 L1357.22 1417.39 Z" fill="#000000" fill-rule="nonzero" fill-opacity="1" /><polyline clip-path="url(#clip170)" style="stroke:#000000; stroke-linecap:round; stroke-linejoin:round; stroke-width:4; stroke-opacity:1; fill:none" points="1397.93,1410.41 1813.39,1050.61 "/>
<polyline clip-path="url(#clip170)" style="stroke:#000000; stroke-linecap:round; stroke-linejoin:round; stroke-width:4; stroke-opacity:1; fill:none" points="1459.5,1357.09 1450.86,1354.6 "/>
<polyline clip-path="url(#clip170)" style="stroke:#000000; stroke-linecap:round; stroke-linejoin:round; stroke-width:4; stroke-opacity:1; fill:none" points="1527.93,1297.82 1519.3,1295.33 "/>
<polyline clip-path="url(#clip170)" style="stroke:#000000; stroke-linecap:round; stroke-linejoin:round; stroke-width:4; stroke-opacity:1; fill:none" points="1596.37,1238.56 1587.73,1236.06 "/>
<polyline clip-path="url(#clip170)" style="stroke:#000000; stroke-linecap:round; stroke-linejoin:round; stroke-width:4; stroke-opacity:1; fill:none" points="1664.81,1179.29 1656.17,1176.8 "/>
<polyline clip-path="url(#clip170)" style="stroke:#000000; stroke-linecap:round; stroke-linejoin:round; stroke-width:4; stroke-opacity:1; fill:none" points="1733.24,1120.02 1724.61,1117.53 "/>
<polyline clip-path="url(#clip170)" style="stroke:#000000; stroke-linecap:round; stroke-linejoin:round; stroke-width:4; stroke-opacity:1; fill:none" points="1801.68,1060.76 1793.04,1058.26 "/>
<path clip-path="url(#clip170)" d="M1478.63 1379.07 L1508.3 1379.07 L1508.3 1383.01 L1478.63 1383.01 L1478.63 1379.07 Z" fill="#000000" fill-rule="nonzero" fill-opacity="1" /><path clip-path="url(#clip170)" d="M1519.2 1391.97 L1526.84 1391.97 L1526.84 1365.6 L1518.53 1367.27 L1518.53 1363.01 L1526.8 1361.34 L1531.47 1361.34 L1531.47 1391.97 L1539.11 1391.97 L1539.11 1395.9 L1519.2 1395.9 L1519.2 1391.97 Z" fill="#000000" fill-rule="nonzero" fill-opacity="1" /><path clip-path="url(#clip170)" d="M1548.56 1390.02 L1553.44 1390.02 L1553.44 1395.9 L1548.56 1395.9 L1548.56 1390.02 Z" fill="#000000" fill-rule="nonzero" fill-opacity="1" /><path clip-path="url(#clip170)" d="M1573.62 1364.42 Q1570.01 1364.42 1568.18 1367.99 Q1566.38 1371.53 1566.38 1378.66 Q1566.38 1385.76 1568.18 1389.33 Q1570.01 1392.87 1573.62 1392.87 Q1577.26 1392.87 1579.06 1389.33 Q1580.89 1385.76 1580.89 1378.66 Q1580.89 1371.53 1579.06 1367.99 Q1577.26 1364.42 1573.62 1364.42 M1573.62 1360.72 Q1579.43 1360.72 1582.49 1365.32 Q1585.57 1369.91 1585.57 1378.66 Q1585.57 1387.38 1582.49 1391.99 Q1579.43 1396.57 1573.62 1396.57 Q1567.81 1396.57 1564.74 1391.99 Q1561.68 1387.38 1561.68 1378.66 Q1561.68 1369.91 1564.74 1365.32 Q1567.81 1360.72 1573.62 1360.72 Z" fill="#000000" fill-rule="nonzero" fill-opacity="1" /><path clip-path="url(#clip170)" d="M1547.06 1319.81 L1576.74 1319.81 L1576.74 1323.74 L1547.06 1323.74 L1547.06 1319.81 Z" fill="#000000" fill-rule="nonzero" fill-opacity="1" /><path clip-path="url(#clip170)" d="M1596.83 1305.15 Q1593.22 1305.15 1591.39 1308.72 Q1589.58 1312.26 1589.58 1319.39 Q1589.58 1326.5 1591.39 1330.06 Q1593.22 1333.6 1596.83 1333.6 Q1600.46 1333.6 1602.27 1330.06 Q1604.1 1326.5 1604.1 1319.39 Q1604.1 1312.26 1602.27 1308.72 Q1600.46 1305.15 1596.83 1305.15 M1596.83 1301.45 Q1602.64 1301.45 1605.69 1306.06 Q1608.77 1310.64 1608.77 1319.39 Q1608.77 1328.12 1605.69 1332.72 Q1602.64 1337.31 1596.83 1337.31 Q1591.02 1337.31 1587.94 1332.72 Q1584.88 1328.12 1584.88 1319.39 Q1584.88 1310.64 1587.94 1306.06 Q1591.02 1301.45 1596.83 1301.45 Z" fill="#000000" fill-rule="nonzero" fill-opacity="1" /><path clip-path="url(#clip170)" d="M1616.99 1330.76 L1621.87 1330.76 L1621.87 1336.64 L1616.99 1336.64 L1616.99 1330.76 Z" fill="#000000" fill-rule="nonzero" fill-opacity="1" /><path clip-path="url(#clip170)" d="M1632.11 1302.08 L1650.46 1302.08 L1650.46 1306.01 L1636.39 1306.01 L1636.39 1314.48 Q1637.41 1314.14 1638.43 1313.97 Q1639.44 1313.79 1640.46 1313.79 Q1646.25 1313.79 1649.63 1316.96 Q1653.01 1320.13 1653.01 1325.55 Q1653.01 1331.13 1649.54 1334.23 Q1646.06 1337.31 1639.75 1337.31 Q1637.57 1337.31 1635.3 1336.94 Q1633.06 1336.57 1630.65 1335.83 L1630.65 1331.13 Q1632.73 1332.26 1634.95 1332.82 Q1637.18 1333.37 1639.65 1333.37 Q1643.66 1333.37 1646 1331.27 Q1648.33 1329.16 1648.33 1325.55 Q1648.33 1321.94 1646 1319.83 Q1643.66 1317.72 1639.65 1317.72 Q1637.78 1317.72 1635.9 1318.14 Q1634.05 1318.56 1632.11 1319.44 L1632.11 1302.08 Z" fill="#000000" fill-rule="nonzero" fill-opacity="1" /><path clip-path="url(#clip170)" d="M1627.44 1245.89 Q1623.83 1245.89 1622 1249.45 Q1620.19 1252.99 1620.19 1260.12 Q1620.19 1267.23 1622 1270.8 Q1623.83 1274.34 1627.44 1274.34 Q1631.07 1274.34 1632.88 1270.8 Q1634.71 1267.23 1634.71 1260.12 Q1634.71 1252.99 1632.88 1249.45 Q1631.07 1245.89 1627.44 1245.89 M1627.44 1242.18 Q1633.25 1242.18 1636.31 1246.79 Q1639.38 1251.37 1639.38 1260.12 Q1639.38 1268.85 1636.31 1273.46 Q1633.25 1278.04 1627.44 1278.04 Q1621.63 1278.04 1618.55 1273.46 Q1615.5 1268.85 1615.5 1260.12 Q1615.5 1251.37 1618.55 1246.79 Q1621.63 1242.18 1627.44 1242.18 Z" fill="#000000" fill-rule="nonzero" fill-opacity="1" /><path clip-path="url(#clip170)" d="M1647.6 1271.49 L1652.49 1271.49 L1652.49 1277.37 L1647.6 1277.37 L1647.6 1271.49 Z" fill="#000000" fill-rule="nonzero" fill-opacity="1" /><path clip-path="url(#clip170)" d="M1672.67 1245.89 Q1669.06 1245.89 1667.23 1249.45 Q1665.43 1252.99 1665.43 1260.12 Q1665.43 1267.23 1667.23 1270.8 Q1669.06 1274.34 1672.67 1274.34 Q1676.31 1274.34 1678.11 1270.8 Q1679.94 1267.23 1679.94 1260.12 Q1679.94 1252.99 1678.11 1249.45 Q1676.31 1245.89 1672.67 1245.89 M1672.67 1242.18 Q1678.48 1242.18 1681.54 1246.79 Q1684.62 1251.37 1684.62 1260.12 Q1684.62 1268.85 1681.54 1273.46 Q1678.48 1278.04 1672.67 1278.04 Q1666.86 1278.04 1663.78 1273.46 Q1660.73 1268.85 1660.73 1260.12 Q1660.73 1251.37 1663.78 1246.79 Q1666.86 1242.18 1672.67 1242.18 Z" fill="#000000" fill-rule="nonzero" fill-opacity="1" /><path clip-path="url(#clip170)" d="M1695.88 1186.62 Q1692.26 1186.62 1690.44 1190.19 Q1688.63 1193.73 1688.63 1200.86 Q1688.63 1207.96 1690.44 1211.53 Q1692.26 1215.07 1695.88 1215.07 Q1699.51 1215.07 1701.32 1211.53 Q1703.14 1207.96 1703.14 1200.86 Q1703.14 1193.73 1701.32 1190.19 Q1699.51 1186.62 1695.88 1186.62 M1695.88 1182.92 Q1701.69 1182.92 1704.74 1187.52 Q1707.82 1192.11 1707.82 1200.86 Q1707.82 1209.58 1704.74 1214.19 Q1701.69 1218.77 1695.88 1218.77 Q1690.07 1218.77 1686.99 1214.19 Q1683.93 1209.58 1683.93 1200.86 Q1683.93 1192.11 1686.99 1187.52 Q1690.07 1182.92 1695.88 1182.92 Z" fill="#000000" fill-rule="nonzero" fill-opacity="1" /><path clip-path="url(#clip170)" d="M1716.04 1212.22 L1720.92 1212.22 L1720.92 1218.1 L1716.04 1218.1 L1716.04 1212.22 Z" fill="#000000" fill-rule="nonzero" fill-opacity="1" /><path clip-path="url(#clip170)" d="M1731.15 1183.54 L1749.51 1183.54 L1749.51 1187.48 L1735.44 1187.48 L1735.44 1195.95 Q1736.45 1195.6 1737.47 1195.44 Q1738.49 1195.26 1739.51 1195.26 Q1745.3 1195.26 1748.68 1198.43 Q1752.06 1201.6 1752.06 1207.01 Q1752.06 1212.59 1748.58 1215.69 Q1745.11 1218.77 1738.79 1218.77 Q1736.62 1218.77 1734.35 1218.4 Q1732.1 1218.03 1729.69 1217.29 L1729.69 1212.59 Q1731.78 1213.73 1734 1214.28 Q1736.22 1214.84 1738.7 1214.84 Q1742.7 1214.84 1745.04 1212.73 Q1747.38 1210.63 1747.38 1207.01 Q1747.38 1203.4 1745.04 1201.3 Q1742.7 1199.19 1738.7 1199.19 Q1736.82 1199.19 1734.95 1199.61 Q1733.1 1200.02 1731.15 1200.9 L1731.15 1183.54 Z" fill="#000000" fill-rule="nonzero" fill-opacity="1" /><path clip-path="url(#clip170)" d="M1753.04 1154.9 L1760.68 1154.9 L1760.68 1128.53 L1752.37 1130.2 L1752.37 1125.94 L1760.63 1124.28 L1765.31 1124.28 L1765.31 1154.9 L1772.95 1154.9 L1772.95 1158.84 L1753.04 1158.84 L1753.04 1154.9 Z" fill="#000000" fill-rule="nonzero" fill-opacity="1" /><path clip-path="url(#clip170)" d="M1782.39 1152.96 L1787.27 1152.96 L1787.27 1158.84 L1782.39 1158.84 L1782.39 1152.96 Z" fill="#000000" fill-rule="nonzero" fill-opacity="1" /><path clip-path="url(#clip170)" d="M1807.46 1127.35 Q1803.85 1127.35 1802.02 1130.92 Q1800.21 1134.46 1800.21 1141.59 Q1800.21 1148.7 1802.02 1152.26 Q1803.85 1155.8 1807.46 1155.8 Q1811.09 1155.8 1812.9 1152.26 Q1814.73 1148.7 1814.73 1141.59 Q1814.73 1134.46 1812.9 1130.92 Q1811.09 1127.35 1807.46 1127.35 M1807.46 1123.65 Q1813.27 1123.65 1816.32 1128.26 Q1819.4 1132.84 1819.4 1141.59 Q1819.4 1150.32 1816.32 1154.92 Q1813.27 1159.51 1807.46 1159.51 Q1801.65 1159.51 1798.57 1154.92 Q1795.51 1150.32 1795.51 1141.59 Q1795.51 1132.84 1798.57 1128.26 Q1801.65 1123.65 1807.46 1123.65 Z" fill="#000000" fill-rule="nonzero" fill-opacity="1" /><path clip-path="url(#clip170)" d="M1821.47 1095.63 L1829.11 1095.63 L1829.11 1069.27 L1820.8 1070.93 L1820.8 1066.68 L1829.07 1065.01 L1833.74 1065.01 L1833.74 1095.63 L1841.38 1095.63 L1841.38 1099.57 L1821.47 1099.57 L1821.47 1095.63 Z" fill="#000000" fill-rule="nonzero" fill-opacity="1" /><path clip-path="url(#clip170)" d="M1850.82 1093.69 L1855.71 1093.69 L1855.71 1099.57 L1850.82 1099.57 L1850.82 1093.69 Z" fill="#000000" fill-rule="nonzero" fill-opacity="1" /><path clip-path="url(#clip170)" d="M1865.94 1065.01 L1884.3 1065.01 L1884.3 1068.94 L1870.22 1068.94 L1870.22 1077.42 Q1871.24 1077.07 1872.26 1076.91 Q1873.28 1076.72 1874.3 1076.72 Q1880.08 1076.72 1883.46 1079.89 Q1886.84 1083.06 1886.84 1088.48 Q1886.84 1094.06 1883.37 1097.16 Q1879.9 1100.24 1873.58 1100.24 Q1871.4 1100.24 1869.13 1099.87 Q1866.89 1099.5 1864.48 1098.76 L1864.48 1094.06 Q1866.57 1095.19 1868.79 1095.75 Q1871.01 1096.3 1873.49 1096.3 Q1877.49 1096.3 1879.83 1094.2 Q1882.17 1092.09 1882.17 1088.48 Q1882.17 1084.87 1879.83 1082.76 Q1877.49 1080.66 1873.49 1080.66 Q1871.61 1080.66 1869.74 1081.07 Q1867.88 1081.49 1865.94 1082.37 L1865.94 1065.01 Z" fill="#000000" fill-rule="nonzero" fill-opacity="1" /><polyline clip-path="url(#clip170)" style="stroke:#000000; stroke-linecap:round; stroke-linejoin:round; stroke-width:4; stroke-opacity:1; fill:none" points="678.326,1202.68 678.326,483.08 "/>
<polyline clip-path="url(#clip170)" style="stroke:#000000; stroke-linecap:round; stroke-linejoin:round; stroke-width:4; stroke-opacity:1; fill:none" points="678.326,1182.32 683.311,1178 "/>
<polyline clip-path="url(#clip170)" style="stroke:#000000; stroke-linecap:round; stroke-linejoin:round; stroke-width:4; stroke-opacity:1; fill:none" points="678.326,1002.24 683.311,997.922 "/>
<polyline clip-path="url(#clip170)" style="stroke:#000000; stroke-linecap:round; stroke-linejoin:round; stroke-width:4; stroke-opacity:1; fill:none" points="678.326,822.164 683.311,817.847 "/>
<polyline clip-path="url(#clip170)" style="stroke:#000000; stroke-linecap:round; stroke-linejoin:round; stroke-width:4; stroke-opacity:1; fill:none" points="678.326,642.088 683.311,637.771 "/>
<path clip-path="url(#clip170)" d="M637.581 1168.11 Q633.97 1168.11 632.141 1171.68 Q630.336 1175.22 630.336 1182.35 Q630.336 1189.46 632.141 1193.02 Q633.97 1196.56 637.581 1196.56 Q641.215 1196.56 643.021 1193.02 Q644.85 1189.46 644.85 1182.35 Q644.85 1175.22 643.021 1171.68 Q641.215 1168.11 637.581 1168.11 M637.581 1164.41 Q643.391 1164.41 646.447 1169.02 Q649.526 1173.6 649.526 1182.35 Q649.526 1191.08 646.447 1195.68 Q643.391 1200.27 637.581 1200.27 Q631.771 1200.27 628.692 1195.68 Q625.637 1191.08 625.637 1182.35 Q625.637 1173.6 628.692 1169.02 Q631.771 1164.41 637.581 1164.41 Z" fill="#000000" fill-rule="nonzero" fill-opacity="1" /><path clip-path="url(#clip170)" d="M628.623 984.96 L646.979 984.96 L646.979 988.895 L632.905 988.895 L632.905 997.367 Q633.924 997.02 634.942 996.858 Q635.961 996.673 636.979 996.673 Q642.766 996.673 646.146 999.844 Q649.526 1003.02 649.526 1008.43 Q649.526 1014.01 646.053 1017.11 Q642.581 1020.19 636.262 1020.19 Q634.086 1020.19 631.817 1019.82 Q629.572 1019.45 627.165 1018.71 L627.165 1014.01 Q629.248 1015.14 631.47 1015.7 Q633.692 1016.26 636.169 1016.26 Q640.174 1016.26 642.512 1014.15 Q644.85 1012.04 644.85 1008.43 Q644.85 1004.82 642.512 1002.71 Q640.174 1000.61 636.169 1000.61 Q634.294 1000.61 632.419 1001.02 Q630.567 1001.44 628.623 1002.32 L628.623 984.96 Z" fill="#000000" fill-rule="nonzero" fill-opacity="1" /><path clip-path="url(#clip170)" d="M598.23 835.509 L605.868 835.509 L605.868 809.143 L597.558 810.81 L597.558 806.551 L605.822 804.884 L610.498 804.884 L610.498 835.509 L618.137 835.509 L618.137 839.444 L598.23 839.444 L598.23 835.509 Z" fill="#000000" fill-rule="nonzero" fill-opacity="1" /><path clip-path="url(#clip170)" d="M637.581 807.963 Q633.97 807.963 632.141 811.528 Q630.336 815.069 630.336 822.199 Q630.336 829.305 632.141 832.87 Q633.97 836.412 637.581 836.412 Q641.215 836.412 643.021 832.87 Q644.85 829.305 644.85 822.199 Q644.85 815.069 643.021 811.528 Q641.215 807.963 637.581 807.963 M637.581 804.259 Q643.391 804.259 646.447 808.866 Q649.526 813.449 649.526 822.199 Q649.526 830.926 646.447 835.532 Q643.391 840.115 637.581 840.115 Q631.771 840.115 628.692 835.532 Q625.637 830.926 625.637 822.199 Q625.637 813.449 628.692 808.866 Q631.771 804.259 637.581 804.259 Z" fill="#000000" fill-rule="nonzero" fill-opacity="1" /><path clip-path="url(#clip170)" d="M599.225 655.433 L606.864 655.433 L606.864 629.068 L598.554 630.734 L598.554 626.475 L606.817 624.808 L611.493 624.808 L611.493 655.433 L619.132 655.433 L619.132 659.368 L599.225 659.368 L599.225 655.433 Z" fill="#000000" fill-rule="nonzero" fill-opacity="1" /><path clip-path="url(#clip170)" d="M628.623 624.808 L646.979 624.808 L646.979 628.744 L632.905 628.744 L632.905 637.216 Q633.924 636.868 634.942 636.706 Q635.961 636.521 636.979 636.521 Q642.766 636.521 646.146 639.693 Q649.526 642.864 649.526 648.28 Q649.526 653.859 646.053 656.961 Q642.581 660.04 636.262 660.04 Q634.086 660.04 631.817 659.669 Q629.572 659.299 627.165 658.558 L627.165 653.859 Q629.248 654.993 631.47 655.549 Q633.692 656.105 636.169 656.105 Q640.174 656.105 642.512 653.998 Q644.85 651.892 644.85 648.28 Q644.85 644.669 642.512 642.563 Q640.174 640.456 636.169 640.456 Q634.294 640.456 632.419 640.873 Q630.567 641.29 628.623 642.169 L628.623 624.808 Z" fill="#000000" fill-rule="nonzero" fill-opacity="1" /><polyline clip-path="url(#clip172)" style="stroke:#009af9; stroke-linecap:round; stroke-linejoin:round; stroke-width:4; stroke-opacity:1; fill:none" points="1469.18,1181.47 1471.72,1178.54 1474.17,1175.59 1476.55,1172.62 1478.84,1169.63 1481.04,1166.61 1483.16,1163.58 1485.19,1160.52 1487.13,1157.45 1488.98,1154.36 1490.75,1151.26 1492.42,1148.14 1494,1145.01 1495.49,1141.86 1496.89,1138.7 1498.2,1135.52 1499.42,1132.34 1500.54,1129.14 1501.57,1125.94 1502.5,1122.73 1503.35,1119.51 1504.09,1116.28 1504.74,1113.05 1505.3,1109.82 1505.76,1106.58 1506.13,1103.33 1506.4,1100.09 1506.58,1096.84 1506.65,1093.6 1506.64,1090.35 1506.53,1087.11 1506.32,1083.87 1506.02,1080.63 1505.62,1077.4 1505.13,1074.17 1504.54,1070.95 1503.86,1067.73 1503.08,1064.53 1502.21,1061.33 1501.24,1058.14 1500.18,1054.96 1499.03,1051.8 1497.78,1048.65 1496.44,1045.51 1495.01,1042.38 1493.49,1039.27 1491.88,1036.18 1490.17,1033.1 1488.38,1030.04 1486.5,1027 1484.53,1023.98 1482.47,1020.98 1480.32,1018 1478.09,1015.04 1475.77,1012.1 1473.37,1009.19 1470.89,1006.3 1468.32,1003.44 1465.67,1000.6 1462.94,997.791 1460.12,995.007 1457.23,992.252 1454.26,989.526 1451.22,986.829 1448.1,984.163 1444.9,981.528 1441.63,978.924 1438.29,976.353 1434.87,973.814 1431.39,971.31 1427.84,968.84 1424.22,966.405 1420.53,964.005 1416.78,961.642 1412.96,959.315 1409.09,957.027 1405.15,954.776 1401.15,952.563 1397.09,950.39 1392.98,948.256 1388.81,946.163 1384.59,944.11 1380.32,942.098 1375.99,940.128 1371.62,938.2 1367.2,936.315 1362.73,934.472 1358.22,932.673 1353.67,930.918 1349.07,929.207 1344.44,927.54 1339.77,925.918 1335.06,924.342 1330.31,922.811 1325.54,921.326 1320.73,919.887 1315.89,918.494 1311.03,917.148 1306.14,915.849 1301.22,914.597 1296.29,913.392 1291.33,912.235 1286.35,911.125 1281.36,910.063 1276.35,909.049 1271.32,908.084 1266.29,907.166 1261.24,906.297 1256.19,905.476 1251.13,904.703 1246.07,903.979 1241,903.303 1235.93,902.676 1230.86,902.097 1225.8,901.566 1220.74,901.084 1215.68,900.65 1210.64,900.264 1205.6,899.926 1200.57,899.636 1195.56,899.394 1190.56,899.2 1185.58,899.052 1180.62,898.953 1175.68,898.9 1170.76,898.894 1165.87,898.935 1161,899.022 1156.16,899.155 1151.35,899.334 1146.56,899.559 1141.81,899.828 1137.1,900.143 1132.42,900.502 1127.78,900.905 1123.18,901.352 1118.62,901.842 1114.1,902.374 1109.62,902.95 1105.19,903.567 1100.81,904.226 1096.48,904.926 1092.2,905.667 1087.97,906.448 1083.79,907.268 1079.67,908.127 1075.6,909.025 1071.6,909.961 1067.65,910.934 1063.76,911.943 1059.93,912.989 1056.17,914.071 1052.47,915.187 1048.84,916.338 1045.28,917.522 1041.78,918.74 1038.36,919.989 1035,921.27 1031.72,922.582 1028.51,923.924 1025.38,925.296 1022.32,926.696 1019.34,928.125 1016.43,929.581 1013.61,931.063 1010.86,932.571 1008.2,934.103 1005.61,935.66 1003.11,937.241 1000.7,938.844 998.367,940.468 996.121,942.114 993.96,943.779 991.887,945.464 989.901,947.167 988.004,948.888 986.196,950.626 984.477,952.379 982.849,954.148 981.311,955.93 979.865,957.726 978.511,959.534 977.249,961.353 976.08,963.184 975.004,965.023 974.022,966.872 973.134,968.729 972.34,970.592 971.641,972.462 971.037,974.336 970.527,976.215 970.113,978.098 969.795,979.983 969.571,981.869 969.444,983.756 969.412,985.642 969.475,987.528 969.635,989.411 969.889,991.291 970.24,993.168 970.685,995.039 971.226,996.905 971.862,998.764 972.592,1000.62 973.417,1002.46 974.337,1004.29 975.35,1006.12 976.456,1007.93 977.656,1009.73 978.948,1011.51 980.333,1013.29 981.809,1015.05 983.377,1016.79 985.035,1018.52 986.784,1020.23 988.622,1021.92 990.548,1023.59 992.563,1025.24 994.665,1026.87 996.854,1028.48 999.128,1030.07 1001.49,1031.64 1003.93,1033.18 1006.46,1034.7 1009.07,1036.19 1011.76,1037.65 1014.53,1039.09 1017.38,1040.5 1020.31,1041.88 1023.32,1043.23 1026.4,1044.56 1029.56,1045.85 1032.8,1047.11 1036.1,1048.34 1039.48,1049.53 1042.93,1050.7 1046.45,1051.82 1050.04,1052.92 1053.69,1053.98 1057.41,1055 1061.19,1055.98 1065.04,1056.93 1068.95,1057.84 1072.91,1058.72 1076.94,1059.55 1081.03,1060.34 1085.17,1061.1 1089.36,1061.81 1093.61,1062.49 1097.91,1063.12 1102.26,1063.71 1106.65,1064.26 1111.1,1064.76 1115.59,1065.22 1120.12,1065.64 1124.69,1066.01 1129.31,1066.34 1133.96,1066.63 1138.65,1066.87 1143.38,1067.06 1148.14,1067.21 1152.93,1067.32 1157.76,1067.37 1162.61,1067.38 1167.48,1067.35 1172.39,1067.26 1177.31,1067.13 1182.26,1066.95 1187.23,1066.73 1192.21,1066.46 1197.22,1066.13 1202.23,1065.77 1207.26,1065.35 1212.3,1064.88 1217.35,1064.37 1222.41,1063.81 1227.47,1063.2 1232.54,1062.54 1237.61,1061.83 1242.67,1061.07 1247.74,1060.27 1252.8,1059.42 1257.86,1058.51 1262.91,1057.57 1267.96,1056.57 1272.99,1055.52 1278.01,1054.43 1283.01,1053.29 1288,1052.1 1292.97,1050.87 1297.92,1049.58 1302.85,1048.25 1307.76,1046.88 1312.64,1045.45 1317.5,1043.98 1322.32,1042.47 1327.12,1040.91 1331.89,1039.3 1336.62,1037.65 1341.31,1035.95 1345.98,1034.21 1350.6,1032.43 1355.18,1030.6 1359.72,1028.73 1364.22,1026.82 1368.67,1024.86 1373.07,1022.87 1377.43,1020.83 1381.74,1018.75 1385.99,1016.63 1390.2,1014.47 1394.35,1012.27 1398.44,1010.03 1402.48,1007.76 1406.46,1005.44 1410.38,1003.09 1414.23,1000.7 1418.03,998.281 1421.76,995.823 1425.42,993.331 1429.02,990.804 1432.55,988.244 1436.01,985.651 1439.4,983.027 1442.72,980.371 1445.97,977.685 1449.14,974.969 1452.23,972.224 1455.25,969.45 1458.2,966.649 1461.06,963.821 1463.85,960.966 1466.55,958.087 1469.18,955.183 1471.72,952.255 1474.17,949.304 1476.55,946.331 1478.84,943.337 1481.04,940.322 1483.16,937.288 1485.19,934.234 1487.13,931.163 1488.98,928.075 1490.75,924.97 1492.42,921.85 1494,918.715 1495.49,915.567 1496.89,912.406 1498.2,909.233 1499.42,906.049 1500.54,902.855 1501.57,899.651 1502.5,896.439 1503.35,893.22 1504.09,889.994 1504.74,886.763 1505.3,883.527 1505.76,880.287 1506.13,877.044 1506.4,873.8 1506.58,870.554 1506.65,867.308 1506.64,864.062 1506.53,860.819 1506.32,857.578 1506.02,854.34 1505.62,851.107 1505.13,847.879 1504.54,844.658 1503.86,841.443 1503.08,838.237 1502.21,835.04 1501.24,831.852 1500.18,828.675 1499.03,825.51 1497.78,822.357 1496.44,819.217 1495.01,816.092 1493.49,812.982 1491.88,809.888 1490.17,806.811 1488.38,803.751 1486.5,800.71 1484.53,797.688 1482.47,794.687 1480.32,791.706 1478.09,788.748 1475.77,785.812 1473.37,782.9 1470.89,780.012 1468.32,777.149 1465.67,774.311 1462.94,771.501 1460.12,768.718 1457.23,765.962 1454.26,763.236 1451.22,760.539 1448.1,757.873 1444.9,755.238 1441.63,752.634 1438.29,750.063 1434.87,747.524 1431.39,745.02 1427.84,742.55 1424.22,740.115 1420.53,737.715 1416.78,735.352 1412.96,733.026 1409.09,730.737 1405.15,728.486 1401.15,726.273 1397.09,724.1 1392.98,721.966 1388.81,719.873 1384.59,717.82 1380.32,715.808 1375.99,713.838 1371.62,711.91 1367.2,710.025 1362.73,708.182 1358.22,706.383 1353.67,704.628 1349.07,702.917 1344.44,701.25 1339.77,699.629 1335.06,698.052 1330.31,696.521 1325.54,695.036 1320.73,693.597 1315.89,692.204 1311.03,690.858 1306.14,689.559 1301.22,688.307 1296.29,687.102 1291.33,685.945 1286.35,684.835 1281.36,683.773 1276.35,682.76 1271.32,681.794 1266.29,680.876 1261.24,680.007 1256.19,679.186 1251.13,678.413 1246.07,677.689 1241,677.013 1235.93,676.386 1230.86,675.807 1225.8,675.276 1220.74,674.794 1215.68,674.36 1210.64,673.974 1205.6,673.636 1200.57,673.346 1195.56,673.104 1190.56,672.91 1185.58,672.763 1180.62,672.663 1175.68,672.61 1170.76,672.604 1165.87,672.645 1161,672.732 1156.16,672.865 1151.35,673.044 1146.56,673.269 1141.81,673.539 1137.1,673.853 1132.42,674.212 1127.78,674.615 1123.18,675.062 1118.62,675.552 1114.1,676.085 1109.62,676.66 1105.19,677.277 1100.81,677.936 1096.48,678.636 1092.2,679.377 1087.97,680.158 1083.79,680.978 1079.67,681.837 1075.6,682.735 1071.6,683.671 1067.65,684.644 1063.76,685.654 1059.93,686.7 1056.17,687.781 1052.47,688.897 1048.84,690.048 1045.28,691.232 1041.78,692.45 1038.36,693.699 1035,694.98 1031.72,696.292 1028.51,697.634 1025.38,699.006 1022.32,700.407 1019.34,701.835 1016.43,703.291 1013.61,704.773 1010.86,706.281 1008.2,707.813 1005.61,709.37 1003.11,710.951 1000.7,712.554 998.367,714.178 996.121,715.824 993.96,717.489 991.887,719.174 989.901,720.877 988.004,722.598 986.196,724.336 984.477,726.089 982.849,727.858 981.311,729.64 979.865,731.436 978.511,733.244 977.249,735.064 976.08,736.894 975.004,738.734 974.022,740.582 973.134,742.439 972.34,744.302 971.641,746.172 971.037,748.046 970.527,749.925 970.113,751.808 969.795,753.693 969.571,755.579 969.444,757.466 969.412,759.353 969.475,761.238 969.635,763.121 969.889,765.002 970.24,766.878 970.685,768.749 971.226,770.615 971.862,772.474 972.592,774.325 973.417,776.168 974.337,778.002 975.35,779.825 976.456,781.637 977.656,783.438 978.948,785.225 980.333,786.998 981.809,788.757 983.377,790.5 985.035,792.227 986.784,793.936 988.622,795.627 990.548,797.3 992.563,798.952 994.665,800.584 996.854,802.195 999.128,803.783 1001.49,805.348 1003.93,806.889 1006.46,808.406 1009.07,809.897 1011.76,811.362 1014.53,812.8 1017.38,814.21 1020.31,815.592 1023.32,816.944 1026.4,818.267 1029.56,819.558 1032.8,820.819 1036.1,822.047 1039.48,823.243 1042.93,824.406 1046.45,825.534 1050.04,826.627 1053.69,827.686 1057.41,828.708 1061.19,829.694 1065.04,830.643 1068.95,831.553 1072.91,832.426 1076.94,833.26 1081.03,834.054 1085.17,834.809 1089.36,835.523 1093.61,836.196 1097.91,836.828 1102.26,837.418 1106.65,837.966 1111.1,838.47 1115.59,838.932 1120.12,839.35 1124.69,839.725 1129.31,840.054 1133.96,840.34 1138.65,840.58 1143.38,840.774 1148.14,840.923 1152.93,841.026 1157.76,841.083 1162.61,841.094 1167.48,841.057 1172.39,840.974 1177.31,840.843 1182.26,840.665 1187.23,840.439 1192.21,840.166 1197.22,839.845 1202.23,839.475 1207.26,839.058 1212.3,838.592 1217.35,838.078 1222.41,837.516 1227.47,836.905 1232.54,836.246 1237.61,835.539 1242.67,834.783 1247.74,833.979 1252.8,833.126 1257.86,832.225 1262.91,831.276 1267.96,830.279 1272.99,829.233 1278.01,828.14 1283.01,826.999 1288,825.811 1292.97,824.575 1297.92,823.292 1302.85,821.963 1307.76,820.586 1312.64,819.163 1317.5,817.694 1322.32,816.178 1327.12,814.617 1331.89,813.011 1336.62,811.36 1341.31,809.664 1345.98,807.924 1350.6,806.14 1355.18,804.313 1359.72,802.442 1364.22,800.529 1368.67,798.573 1373.07,796.576 1377.43,794.537 1381.74,792.458 1385.99,790.338 1390.2,788.178 1394.35,785.979 1398.44,783.742 1402.48,781.466 1406.46,779.152 1410.38,776.801 1414.23,774.414 1418.03,771.992 1421.76,769.533 1425.42,767.041 1429.02,764.514 1432.55,761.954 1436.01,759.362 1439.4,756.737 1442.72,754.081 1445.97,751.395 1449.14,748.679 1452.23,745.934 1455.25,743.16 1458.2,740.359 1461.06,737.531 1463.85,734.676 1466.55,731.797 1469.18,728.893 1471.72,725.965 1474.17,723.014 1476.55,720.041 1478.84,717.047 1481.04,714.032 1483.16,710.998 1485.19,707.945 1487.13,704.873 1488.98,701.785 1490.75,698.68 1492.42,695.56 1494,692.425 1495.49,689.277 1496.89,686.116 1498.2,682.943 1499.42,679.759 1500.54,676.565 1501.57,673.361 1502.5,670.149 1503.35,666.93 1504.09,663.705 1504.74,660.473 1505.3,657.237 1505.76,653.997 1506.13,650.754 1506.4,647.51 1506.58,644.264 1506.65,641.018 1506.64,637.773 1506.53,634.529 1506.32,631.288 1506.02,628.05 1505.62,624.817 1505.13,621.59 1504.54,618.368 1503.86,615.154 1503.08,611.947 1502.21,608.75 1501.24,605.562 1500.18,602.385 1499.03,599.22 1497.78,596.067 1496.44,592.927 1495.01,589.802 1493.49,586.692 1491.88,583.598 1490.17,580.521 1488.38,577.461 1486.5,574.42 1484.53,571.398 1482.47,568.397 1480.32,565.417 1478.09,562.458 1475.77,559.522 1473.37,556.61 1470.89,553.722 1468.32,550.859 1465.67,548.021 1462.94,545.211 1460.12,542.428 1457.23,539.672 1454.26,536.946 1451.22,534.25 1448.1,531.583 1444.9,528.948 1441.63,526.344 1438.29,523.773 1434.87,521.235 1431.39,518.73 1427.84,516.26 1424.22,513.825 1420.53,511.425 1416.78,509.062 1412.96,506.736 1409.09,504.447 1405.15,502.196 1401.15,499.983 1397.09,497.81 1392.98,495.676 1388.81,493.583 1384.59,491.53 1380.32,489.518 1375.99,487.548 1371.62,485.62 1367.2,483.735 1362.73,481.893 1358.22,480.094 1353.67,478.338 1349.07,476.627 1344.44,474.96 1339.77,473.339 1335.06,471.762 1330.31,470.231 1325.54,468.746 1320.73,467.307 1315.89,465.914 1311.03,464.568 1306.14,463.269 1301.22,462.017 1296.29,460.812 1291.33,459.655 1286.35,458.545 1281.36,457.483 1276.35,456.47 1271.32,455.504 1266.29,454.586 1261.24,453.717 1256.19,452.896 1251.13,452.123 1246.07,451.399 1241,450.723 1235.93,450.096 1230.86,449.517 1225.8,448.986 1220.74,448.504 1215.68,448.07 1210.64,447.684 1205.6,447.346 1200.57,447.056 1195.56,446.814 1190.56,446.62 1185.58,446.473 1180.62,446.373 1175.68,446.32 1170.76,446.314 1165.87,446.355 1161,446.442 1156.16,446.576 1151.35,446.755 1146.56,446.979 1141.81,447.249 1137.1,447.563 1132.42,447.922 1127.78,448.325 1123.18,448.772 1118.62,449.262 1114.1,449.795 1109.62,450.37 1105.19,450.987 1100.81,451.646 1096.48,452.346 1092.2,453.087 1087.97,453.868 1083.79,454.688 1079.67,455.547 1075.6,456.445 1071.6,457.381 1067.65,458.354 1063.76,459.364 1059.93,460.41 1056.17,461.491 1052.47,462.607 1048.84,463.758 1045.28,464.942 1041.78,466.16 1038.36,467.409 1035,468.69 1031.72,470.002 1028.51,471.345 1025.38,472.716 1022.32,474.117 1019.34,475.545 1016.43,477.001 1013.61,478.483 1010.86,479.991 1008.2,481.524 1005.61,483.081 1003.11,484.661 1000.7,486.264 998.367,487.888 996.121,489.534 993.96,491.199 991.887,492.884 989.901,494.588 988.004,496.308 986.196,498.046 984.477,499.799 982.849,501.568 981.311,503.35 979.865,505.146 978.511,506.954 977.249,508.774 976.08,510.604 975.004,512.444 974.022,514.292 973.134,516.149 972.34,518.012 971.641,519.882 971.037,521.757 970.527,523.636 970.113,525.518 969.795,527.403 969.571,529.289 969.444,531.176 969.412,533.063 969.475,534.948 969.635,536.831 969.889,538.712 970.24,540.588 970.685,542.459 971.226,544.325 971.862,546.184 972.592,548.036 973.417,549.879 974.337,551.712 975.35,553.535 976.456,555.348 977.656,557.148 978.948,558.935 980.333,560.708 981.809,562.467 983.377,564.21 985.035,565.937 986.784,567.646 988.622,569.337 990.548,571.01 992.563,572.662 994.665,574.294 996.854,575.905 999.128,577.493 1001.49,579.058 1003.93,580.599 1006.46,582.116 1009.07,583.607 1011.76,585.072 1014.53,586.51 1017.38,587.92 1020.31,589.302 1023.32,590.654 1026.4,591.977 1029.56,593.269 1032.8,594.529 1036.1,595.758 1039.48,596.953 1042.93,598.116 1046.45,599.244 1050.04,600.338 1053.69,601.396 1057.41,602.418 1061.19,603.404 1065.04,604.353 1068.95,605.264 1072.91,606.136 1076.94,606.97 1081.03,607.764 1085.17,608.519 1089.36,609.233 1093.61,609.906 1097.91,610.538 1102.26,611.128 1106.65,611.676 1111.1,612.181 1115.59,612.642 1120.12,613.06 1124.69,613.435 1129.31,613.764 1133.96,614.05 1138.65,614.29 1143.38,614.484 1148.14,614.634 1152.93,614.737 1157.76,614.793 1162.61,614.804 1167.48,614.767 1172.39,614.684 1177.31,614.553 1182.26,614.375 1187.23,614.149 1192.21,613.876 1197.22,613.555 1202.23,613.185 1207.26,612.768 1212.3,612.302 1217.35,611.788 1222.41,611.226 1227.47,610.616 1232.54,609.956 1237.61,609.249 1242.67,608.493 1247.74,607.689 1252.8,606.836 1257.86,605.935 1262.91,604.986 1267.96,603.989 1272.99,602.943 1278.01,601.85 1283.01,600.71 1288,599.521 1292.97,598.285 1297.92,597.003 1302.85,595.673 1307.76,594.296 1312.64,592.873 1317.5,591.404 1322.32,589.888 1327.12,588.328 1331.89,586.721 1336.62,585.07 1341.31,583.374 1345.98,581.634 1350.6,579.85 1355.18,578.023 1359.72,576.152 1364.22,574.239 1368.67,572.283 1373.07,570.286 1377.43,568.247 1381.74,566.168 1385.99,564.048 1390.2,561.888 1394.35,559.689 1398.44,557.452 1402.48,555.176 1406.46,552.862 1410.38,550.512 1414.23,548.125 1418.03,545.702 1421.76,543.244 1425.42,540.751 1429.02,538.224 1432.55,535.664 1436.01,533.072 1439.4,530.447 1442.72,527.791 1445.97,525.105 1449.14,522.389 1452.23,519.644 1455.25,516.87 1458.2,514.069 1461.06,511.241 1463.85,508.387 1466.55,505.507 1469.18,502.603 "/>
<circle clip-path="url(#clip172)" cx="1506.5" cy="1098.47" r="14.4" fill="#e26f46" fill-rule="evenodd" fill-opacity="1" stroke="#000000" stroke-opacity="1" stroke-width="3.2"/>
<circle clip-path="url(#clip172)" cx="1035.72" cy="920.992" r="14.4" fill="#e26f46" fill-rule="evenodd" fill-opacity="1" stroke="#000000" stroke-opacity="1" stroke-width="3.2"/>
<circle clip-path="url(#clip172)" cx="1283.36" cy="1053.21" r="14.4" fill="#e26f46" fill-rule="evenodd" fill-opacity="1" stroke="#000000" stroke-opacity="1" stroke-width="3.2"/>
<circle clip-path="url(#clip172)" cx="1370.06" cy="711.235" r="14.4" fill="#e26f46" fill-rule="evenodd" fill-opacity="1" stroke="#000000" stroke-opacity="1" stroke-width="3.2"/>
<circle clip-path="url(#clip172)" cx="987.951" cy="795.022" r="14.4" fill="#e26f46" fill-rule="evenodd" fill-opacity="1" stroke="#000000" stroke-opacity="1" stroke-width="3.2"/>
<circle clip-path="url(#clip172)" cx="1493.89" cy="692.657" r="14.4" fill="#e26f46" fill-rule="evenodd" fill-opacity="1" stroke="#000000" stroke-opacity="1" stroke-width="3.2"/>
<circle clip-path="url(#clip172)" cx="1091.3" cy="453.249" r="14.4" fill="#e26f46" fill-rule="evenodd" fill-opacity="1" stroke="#000000" stroke-opacity="1" stroke-width="3.2"/>
<circle clip-path="url(#clip172)" cx="1209.77" cy="612.543" r="14.4" fill="#e26f46" fill-rule="evenodd" fill-opacity="1" stroke="#000000" stroke-opacity="1" stroke-width="3.2"/>
<polyline clip-path="url(#clip172)" style="stroke:#ff0000; stroke-linecap:round; stroke-linejoin:round; stroke-width:4; stroke-opacity:1; fill:none" points="1506.5,1098.47 1511.15,1012.46 "/>
<polyline clip-path="url(#clip172)" style="stroke:#ff0000; stroke-linecap:round; stroke-linejoin:round; stroke-width:4; stroke-opacity:1; fill:none" points="1035.72,920.992 947.362,955.176 "/>
<polyline clip-path="url(#clip172)" style="stroke:#ff0000; stroke-linecap:round; stroke-linejoin:round; stroke-width:4; stroke-opacity:1; fill:none" points="1283.36,1053.21 1415.75,1022.26 "/>
<polyline clip-path="url(#clip172)" style="stroke:#ff0000; stroke-linecap:round; stroke-linejoin:round; stroke-width:4; stroke-opacity:1; fill:none" points="1370.06,711.235 1253.08,661.109 "/>
<polyline clip-path="url(#clip172)" style="stroke:#ff0000; stroke-linecap:round; stroke-linejoin:round; stroke-width:4; stroke-opacity:1; fill:none" points="987.951,795.022 1036.99,839.772 "/>
<polyline clip-path="url(#clip172)" style="stroke:#ff0000; stroke-linecap:round; stroke-linejoin:round; stroke-width:4; stroke-opacity:1; fill:none" points="1493.89,692.657 1534.81,609.432 "/>
<polyline clip-path="url(#clip172)" style="stroke:#ff0000; stroke-linecap:round; stroke-linejoin:round; stroke-width:4; stroke-opacity:1; fill:none" points="1091.3,453.249 978.795,473.633 "/>
<polyline clip-path="url(#clip172)" style="stroke:#ff0000; stroke-linecap:round; stroke-linejoin:round; stroke-width:4; stroke-opacity:1; fill:none" points="1209.77,612.543 1343.33,600.207 "/>
<polyline clip-path="url(#clip172)" style="stroke:#008000; stroke-linecap:round; stroke-linejoin:round; stroke-width:4; stroke-opacity:1; fill:none" points="1506.5,1098.47 1640.73,1099.33 "/>
<polyline clip-path="url(#clip172)" style="stroke:#008000; stroke-linecap:round; stroke-linejoin:round; stroke-width:4; stroke-opacity:1; fill:none" points="1035.72,920.992 934.559,877.385 "/>
<polyline clip-path="url(#clip172)" style="stroke:#008000; stroke-linecap:round; stroke-linejoin:round; stroke-width:4; stroke-opacity:1; fill:none" points="1283.36,1053.21 1306.02,1119.98 "/>
<polyline clip-path="url(#clip172)" style="stroke:#008000; stroke-linecap:round; stroke-linejoin:round; stroke-width:4; stroke-opacity:1; fill:none" points="1370.06,711.235 1436.06,651.285 "/>
<polyline clip-path="url(#clip172)" style="stroke:#008000; stroke-linecap:round; stroke-linejoin:round; stroke-width:4; stroke-opacity:1; fill:none" points="987.951,795.022 862.91,821.234 "/>
<polyline clip-path="url(#clip172)" style="stroke:#008000; stroke-linecap:round; stroke-linejoin:round; stroke-width:4; stroke-opacity:1; fill:none" points="1493.89,692.657 1621.82,711.953 "/>
<polyline clip-path="url(#clip172)" style="stroke:#008000; stroke-linecap:round; stroke-linejoin:round; stroke-width:4; stroke-opacity:1; fill:none" points="1091.3,453.249 1017.93,397.109 "/>
<polyline clip-path="url(#clip172)" style="stroke:#008000; stroke-linecap:round; stroke-linejoin:round; stroke-width:4; stroke-opacity:1; fill:none" points="1209.77,612.543 1195.63,680.317 "/>
<path clip-path="url(#clip170)" d="M1829.6 250.738 L2278.96 250.738 L2278.96 95.2176 L1829.6 95.2176  Z" fill="#ffffff" fill-rule="evenodd" fill-opacity="1"/>
<polyline clip-path="url(#clip170)" style="stroke:#000000; stroke-linecap:round; stroke-linejoin:round; stroke-width:4; stroke-opacity:1; fill:none" points="1829.6,250.738 2278.96,250.738 2278.96,95.2176 1829.6,95.2176 1829.6,250.738 "/>
<polyline clip-path="url(#clip170)" style="stroke:#009af9; stroke-linecap:round; stroke-linejoin:round; stroke-width:4; stroke-opacity:1; fill:none" points="1854.2,147.058 2001.78,147.058 "/>
<path clip-path="url(#clip170)" d="M2033.79 131.051 L2033.79 138.412 L2042.56 138.412 L2042.56 141.722 L2033.79 141.722 L2033.79 155.796 Q2033.79 158.967 2034.64 159.87 Q2035.52 160.773 2038.19 160.773 L2042.56 160.773 L2042.56 164.338 L2038.19 164.338 Q2033.26 164.338 2031.38 162.509 Q2029.51 160.657 2029.51 155.796 L2029.51 141.722 L2026.38 141.722 L2026.38 138.412 L2029.51 138.412 L2029.51 131.051 L2033.79 131.051 Z" fill="#000000" fill-rule="nonzero" fill-opacity="1" /><path clip-path="url(#clip170)" d="M2063.19 142.393 Q2062.47 141.977 2061.61 141.791 Q2060.78 141.583 2059.76 141.583 Q2056.15 141.583 2054.2 143.944 Q2052.28 146.282 2052.28 150.68 L2052.28 164.338 L2048 164.338 L2048 138.412 L2052.28 138.412 L2052.28 142.44 Q2053.63 140.078 2055.78 138.944 Q2057.93 137.787 2061.01 137.787 Q2061.45 137.787 2061.98 137.856 Q2062.51 137.903 2063.16 138.018 L2063.19 142.393 Z" fill="#000000" fill-rule="nonzero" fill-opacity="1" /><path clip-path="url(#clip170)" d="M2079.44 151.305 Q2074.27 151.305 2072.28 152.486 Q2070.29 153.666 2070.29 156.514 Q2070.29 158.782 2071.77 160.125 Q2073.28 161.444 2075.85 161.444 Q2079.39 161.444 2081.52 158.944 Q2083.67 156.421 2083.67 152.254 L2083.67 151.305 L2079.44 151.305 M2087.93 149.546 L2087.93 164.338 L2083.67 164.338 L2083.67 160.402 Q2082.21 162.763 2080.04 163.898 Q2077.86 165.009 2074.71 165.009 Q2070.73 165.009 2068.37 162.787 Q2066.03 160.541 2066.03 156.791 Q2066.03 152.416 2068.95 150.194 Q2071.89 147.972 2077.7 147.972 L2083.67 147.972 L2083.67 147.555 Q2083.67 144.615 2081.73 143.018 Q2079.81 141.398 2076.31 141.398 Q2074.09 141.398 2071.98 141.93 Q2069.88 142.463 2067.93 143.527 L2067.93 139.592 Q2070.27 138.69 2072.47 138.25 Q2074.67 137.787 2076.75 137.787 Q2082.38 137.787 2085.15 140.703 Q2087.93 143.62 2087.93 149.546 Z" fill="#000000" fill-rule="nonzero" fill-opacity="1" /><path clip-path="url(#clip170)" d="M2096.7 138.412 L2100.96 138.412 L2100.96 164.801 Q2100.96 169.754 2099.06 171.976 Q2097.19 174.199 2093 174.199 L2091.38 174.199 L2091.38 170.588 L2092.51 170.588 Q2094.94 170.588 2095.82 169.453 Q2096.7 168.342 2096.7 164.801 L2096.7 138.412 M2096.7 128.319 L2100.96 128.319 L2100.96 133.713 L2096.7 133.713 L2096.7 128.319 Z" fill="#000000" fill-rule="nonzero" fill-opacity="1" /><path clip-path="url(#clip170)" d="M2132.05 150.31 L2132.05 152.393 L2112.47 152.393 Q2112.75 156.791 2115.11 159.106 Q2117.49 161.398 2121.73 161.398 Q2124.18 161.398 2126.47 160.796 Q2128.79 160.194 2131.06 158.99 L2131.06 163.018 Q2128.76 163.99 2126.36 164.5 Q2123.95 165.009 2121.47 165.009 Q2115.27 165.009 2111.63 161.398 Q2108.02 157.787 2108.02 151.629 Q2108.02 145.264 2111.45 141.537 Q2114.9 137.787 2120.73 137.787 Q2125.96 137.787 2129 141.166 Q2132.05 144.523 2132.05 150.31 M2127.79 149.06 Q2127.75 145.565 2125.82 143.481 Q2123.93 141.398 2120.78 141.398 Q2117.21 141.398 2115.06 143.412 Q2112.93 145.426 2112.61 149.083 L2127.79 149.06 Z" fill="#000000" fill-rule="nonzero" fill-opacity="1" /><path clip-path="url(#clip170)" d="M2157.7 139.407 L2157.7 143.389 Q2155.89 142.393 2154.06 141.907 Q2152.26 141.398 2150.41 141.398 Q2146.26 141.398 2143.97 144.037 Q2141.68 146.652 2141.68 151.398 Q2141.68 156.143 2143.97 158.782 Q2146.26 161.398 2150.41 161.398 Q2152.26 161.398 2154.06 160.912 Q2155.89 160.402 2157.7 159.407 L2157.7 163.342 Q2155.92 164.176 2154 164.592 Q2152.1 165.009 2149.94 165.009 Q2144.09 165.009 2140.64 161.328 Q2137.19 157.648 2137.19 151.398 Q2137.19 145.055 2140.66 141.421 Q2144.16 137.787 2150.22 137.787 Q2152.19 137.787 2154.06 138.203 Q2155.94 138.597 2157.7 139.407 Z" fill="#000000" fill-rule="nonzero" fill-opacity="1" /><path clip-path="url(#clip170)" d="M2169.32 131.051 L2169.32 138.412 L2178.09 138.412 L2178.09 141.722 L2169.32 141.722 L2169.32 155.796 Q2169.32 158.967 2170.18 159.87 Q2171.06 160.773 2173.72 160.773 L2178.09 160.773 L2178.09 164.338 L2173.72 164.338 Q2168.79 164.338 2166.91 162.509 Q2165.04 160.657 2165.04 155.796 L2165.04 141.722 L2161.91 141.722 L2161.91 138.412 L2165.04 138.412 L2165.04 131.051 L2169.32 131.051 Z" fill="#000000" fill-rule="nonzero" fill-opacity="1" /><path clip-path="url(#clip170)" d="M2193.74 141.398 Q2190.31 141.398 2188.32 144.083 Q2186.33 146.745 2186.33 151.398 Q2186.33 156.051 2188.3 158.736 Q2190.29 161.398 2193.74 161.398 Q2197.14 161.398 2199.13 158.713 Q2201.12 156.027 2201.12 151.398 Q2201.12 146.791 2199.13 144.106 Q2197.14 141.398 2193.74 141.398 M2193.74 137.787 Q2199.3 137.787 2202.47 141.398 Q2205.64 145.009 2205.64 151.398 Q2205.64 157.764 2202.47 161.398 Q2199.3 165.009 2193.74 165.009 Q2188.16 165.009 2184.99 161.398 Q2181.84 157.764 2181.84 151.398 Q2181.84 145.009 2184.99 141.398 Q2188.16 137.787 2193.74 137.787 Z" fill="#000000" fill-rule="nonzero" fill-opacity="1" /><path clip-path="url(#clip170)" d="M2227.72 142.393 Q2227 141.977 2226.15 141.791 Q2225.31 141.583 2224.3 141.583 Q2220.68 141.583 2218.74 143.944 Q2216.82 146.282 2216.82 150.68 L2216.82 164.338 L2212.54 164.338 L2212.54 138.412 L2216.82 138.412 L2216.82 142.44 Q2218.16 140.078 2220.31 138.944 Q2222.47 137.787 2225.55 137.787 Q2225.99 137.787 2226.52 137.856 Q2227.05 137.903 2227.7 138.018 L2227.72 142.393 Z" fill="#000000" fill-rule="nonzero" fill-opacity="1" /><path clip-path="url(#clip170)" d="M2242.98 166.745 Q2241.17 171.375 2239.46 172.787 Q2237.74 174.199 2234.87 174.199 L2231.47 174.199 L2231.47 170.634 L2233.97 170.634 Q2235.73 170.634 2236.7 169.8 Q2237.68 168.967 2238.86 165.865 L2239.62 163.921 L2229.13 138.412 L2233.65 138.412 L2241.75 158.689 L2249.85 138.412 L2254.36 138.412 L2242.98 166.745 Z" fill="#000000" fill-rule="nonzero" fill-opacity="1" /><circle clip-path="url(#clip170)" cx="1927.99" cy="198.898" r="20.48" fill="#e26f46" fill-rule="evenodd" fill-opacity="1" stroke="#000000" stroke-opacity="1" stroke-width="4.55111"/>
<path clip-path="url(#clip170)" d="M2044.81 191.016 L2044.81 195.043 Q2043 194.117 2041.06 193.655 Q2039.11 193.192 2037.03 193.192 Q2033.86 193.192 2032.26 194.164 Q2030.69 195.136 2030.69 197.08 Q2030.69 198.562 2031.82 199.418 Q2032.95 200.252 2036.38 201.016 L2037.84 201.34 Q2042.38 202.312 2044.27 204.094 Q2046.19 205.854 2046.19 209.025 Q2046.19 212.636 2043.32 214.742 Q2040.48 216.849 2035.48 216.849 Q2033.39 216.849 2031.13 216.432 Q2028.88 216.039 2026.38 215.228 L2026.38 210.83 Q2028.74 212.057 2031.03 212.682 Q2033.32 213.284 2035.57 213.284 Q2038.58 213.284 2040.2 212.266 Q2041.82 211.224 2041.82 209.349 Q2041.82 207.613 2040.64 206.687 Q2039.48 205.761 2035.52 204.904 L2034.04 204.557 Q2030.08 203.724 2028.32 202.011 Q2026.57 200.275 2026.57 197.266 Q2026.57 193.608 2029.16 191.618 Q2031.75 189.627 2036.52 189.627 Q2038.88 189.627 2040.96 189.974 Q2043.05 190.321 2044.81 191.016 Z" fill="#000000" fill-rule="nonzero" fill-opacity="1" /><path clip-path="url(#clip170)" d="M2064.76 203.145 Q2059.6 203.145 2057.61 204.326 Q2055.62 205.506 2055.62 208.354 Q2055.62 210.622 2057.1 211.965 Q2058.6 213.284 2061.17 213.284 Q2064.71 213.284 2066.84 210.784 Q2069 208.261 2069 204.094 L2069 203.145 L2064.76 203.145 M2073.25 201.386 L2073.25 216.178 L2069 216.178 L2069 212.242 Q2067.54 214.603 2065.36 215.738 Q2063.19 216.849 2060.04 216.849 Q2056.06 216.849 2053.69 214.627 Q2051.36 212.381 2051.36 208.631 Q2051.36 204.256 2054.27 202.034 Q2057.21 199.812 2063.02 199.812 L2069 199.812 L2069 199.395 Q2069 196.455 2067.05 194.858 Q2065.13 193.238 2061.63 193.238 Q2059.41 193.238 2057.31 193.77 Q2055.2 194.303 2053.25 195.367 L2053.25 191.432 Q2055.59 190.53 2057.79 190.09 Q2059.99 189.627 2062.07 189.627 Q2067.7 189.627 2070.48 192.543 Q2073.25 195.46 2073.25 201.386 Z" fill="#000000" fill-rule="nonzero" fill-opacity="1" /><path clip-path="url(#clip170)" d="M2102.21 195.229 Q2103.81 192.358 2106.03 190.993 Q2108.25 189.627 2111.26 189.627 Q2115.31 189.627 2117.51 192.474 Q2119.71 195.298 2119.71 200.529 L2119.71 216.178 L2115.43 216.178 L2115.43 200.668 Q2115.43 196.942 2114.11 195.136 Q2112.79 193.33 2110.08 193.33 Q2106.77 193.33 2104.85 195.53 Q2102.93 197.729 2102.93 201.525 L2102.93 216.178 L2098.65 216.178 L2098.65 200.668 Q2098.65 196.918 2097.33 195.136 Q2096.01 193.33 2093.25 193.33 Q2089.99 193.33 2088.07 195.553 Q2086.15 197.752 2086.15 201.525 L2086.15 216.178 L2081.87 216.178 L2081.87 190.252 L2086.15 190.252 L2086.15 194.28 Q2087.61 191.895 2089.64 190.761 Q2091.68 189.627 2094.48 189.627 Q2097.31 189.627 2099.27 191.062 Q2101.26 192.497 2102.21 195.229 Z" fill="#000000" fill-rule="nonzero" fill-opacity="1" /><path clip-path="url(#clip170)" d="M2132.33 212.289 L2132.33 226.039 L2128.05 226.039 L2128.05 190.252 L2132.33 190.252 L2132.33 194.187 Q2133.67 191.872 2135.71 190.761 Q2137.77 189.627 2140.62 189.627 Q2145.34 189.627 2148.28 193.377 Q2151.24 197.127 2151.24 203.238 Q2151.24 209.349 2148.28 213.099 Q2145.34 216.849 2140.62 216.849 Q2137.77 216.849 2135.71 215.738 Q2133.67 214.603 2132.33 212.289 M2146.82 203.238 Q2146.82 198.539 2144.87 195.877 Q2142.95 193.192 2139.57 193.192 Q2136.19 193.192 2134.25 195.877 Q2132.33 198.539 2132.33 203.238 Q2132.33 207.937 2134.25 210.622 Q2136.19 213.284 2139.57 213.284 Q2142.95 213.284 2144.87 210.622 Q2146.82 207.937 2146.82 203.238 Z" fill="#000000" fill-rule="nonzero" fill-opacity="1" /><path clip-path="url(#clip170)" d="M2158.3 180.159 L2162.56 180.159 L2162.56 216.178 L2158.3 216.178 L2158.3 180.159 Z" fill="#000000" fill-rule="nonzero" fill-opacity="1" /><path clip-path="url(#clip170)" d="M2193.65 202.15 L2193.65 204.233 L2174.06 204.233 Q2174.34 208.631 2176.7 210.946 Q2179.09 213.238 2183.32 213.238 Q2185.78 213.238 2188.07 212.636 Q2190.38 212.034 2192.65 210.83 L2192.65 214.858 Q2190.36 215.83 2187.95 216.34 Q2185.55 216.849 2183.07 216.849 Q2176.87 216.849 2173.23 213.238 Q2169.62 209.627 2169.62 203.469 Q2169.62 197.104 2173.05 193.377 Q2176.49 189.627 2182.33 189.627 Q2187.56 189.627 2190.59 193.006 Q2193.65 196.363 2193.65 202.15 M2189.39 200.9 Q2189.34 197.405 2187.42 195.321 Q2185.52 193.238 2182.37 193.238 Q2178.81 193.238 2176.66 195.252 Q2174.53 197.266 2174.2 200.923 L2189.39 200.9 Z" fill="#000000" fill-rule="nonzero" fill-opacity="1" /><path clip-path="url(#clip170)" d="M2217.17 191.016 L2217.17 195.043 Q2215.36 194.117 2213.42 193.655 Q2211.47 193.192 2209.39 193.192 Q2206.22 193.192 2204.62 194.164 Q2203.05 195.136 2203.05 197.08 Q2203.05 198.562 2204.18 199.418 Q2205.31 200.252 2208.74 201.016 L2210.2 201.34 Q2214.74 202.312 2216.63 204.094 Q2218.55 205.854 2218.55 209.025 Q2218.55 212.636 2215.68 214.742 Q2212.84 216.849 2207.84 216.849 Q2205.75 216.849 2203.49 216.432 Q2201.24 216.039 2198.74 215.228 L2198.74 210.83 Q2201.1 212.057 2203.39 212.682 Q2205.68 213.284 2207.93 213.284 Q2210.94 213.284 2212.56 212.266 Q2214.18 211.224 2214.18 209.349 Q2214.18 207.613 2213 206.687 Q2211.84 205.761 2207.88 204.904 L2206.4 204.557 Q2202.44 203.724 2200.68 202.011 Q2198.93 200.275 2198.93 197.266 Q2198.93 193.608 2201.52 191.618 Q2204.11 189.627 2208.88 189.627 Q2211.24 189.627 2213.32 189.974 Q2215.41 190.321 2217.17 191.016 Z" fill="#000000" fill-rule="nonzero" fill-opacity="1" /></svg>
